<svg preserveAspectRatio="none" overflow="visible" style="display: block;" width="16" height="16" viewBox="0 0 16 16" fill="none" xmlns="http://www.w3.org/2000/svg">
<g id="Frame">
<path id="Vector" d="M12.4578 8H14.8125C14.8828 8 14.9406 8.05781 14.9406 8.12656V9.01719C14.9406 9.08594 14.8828 9.14375 14.8125 9.14375H12.4594V10.6703C12.4594 10.7734 12.4547 10.875 12.4484 10.9766C13.5406 11.4422 14.3062 12.525 14.3062 13.7859C14.3062 13.8547 14.2484 13.9125 14.1781 13.9125H13.2859C13.2172 13.9125 13.1594 13.8562 13.1594 13.7859C13.1594 13.0828 12.7797 12.4687 12.2125 12.1375C12.1172 12.4078 11.9969 12.6687 11.8516 12.9156C11.4641 13.575 10.9125 14.1266 10.2516 14.5125C9.59062 14.9 8.82187 15.1203 8.00156 15.1203C7.18125 15.1203 6.41406 14.8984 5.75313 14.5125C5.09219 14.1266 4.54062 13.575 4.15312 12.9156C4.00937 12.6719 3.8875 12.4109 3.79219 12.1375C3.22344 12.4687 2.84375 13.0828 2.84375 13.7859C2.84375 13.8547 2.78594 13.9125 2.71563 13.9125H1.82344C1.75469 13.9125 1.69687 13.8562 1.69687 13.7859C1.69687 12.525 2.4625 11.4422 3.55469 10.9766C3.54688 10.8766 3.54375 10.7734 3.54375 10.6703V9.14375H1.1875C1.11875 9.14375 1.06094 9.0875 1.06094 9.01719V8.12656C1.06094 8.05781 1.11719 8 1.1875 8H3.54375V6.41094C2.32187 6.41094 1.33125 5.42187 1.33125 4.20156C1.33125 4.13281 1.3875 4.075 1.45781 4.075H2.4125C2.48125 4.075 2.53906 4.13125 2.53906 4.20156C2.53906 4.75469 2.9875 5.20312 3.54219 5.20312H12.4578C13.0125 5.20312 13.4609 4.75469 13.4609 4.20156C13.4609 4.13281 13.5187 4.075 13.5891 4.075H14.5437C14.6125 4.075 14.6703 4.13125 14.6703 4.20156C14.6703 5.42187 13.6797 6.41094 12.4578 6.41094V8ZM10.8047 12.3062C11.0922 11.8141 11.2469 11.2547 11.2469 10.6703H11.2484V6.41094H4.75313V10.6703C4.75313 11.2563 4.90781 11.8156 5.19531 12.3062C5.47813 12.7891 5.87969 13.1906 6.3625 13.4719C6.68281 13.6594 7.03125 13.7891 7.39531 13.8578C7.75937 13.9266 8.15031 13.9436 8.60469 13.8578C8.96875 13.7891 9.31719 13.6594 9.6375 13.4719C10.1203 13.1906 10.5234 12.7875 10.8047 12.3062Z" fill="#D83B36"/>
<path id="Vector_2" d="M4.56094 4.18437C4.56094 3.54844 4.70156 2.96563 4.97344 2.46563C5.24687 1.96563 5.65 1.5625 6.15156 1.28906C6.65156 1.01719 7.23594 0.878125 7.87187 0.878125H8.12656C8.76406 0.878125 9.34688 1.01875 9.84688 1.28906C10.3484 1.5625 10.7516 1.96406 11.025 2.46563C11.2969 2.96406 11.4375 3.54844 11.4375 4.18437C11.4375 4.25469 11.3797 4.31094 11.3094 4.31094H10.4172C10.3469 4.31094 10.2906 4.25312 10.2906 4.18437C10.2906 3.73437 10.1953 3.34063 10.0188 3.01563C9.85 2.70781 9.60469 2.4625 9.29531 2.29375C8.97188 2.11563 8.57656 2.02187 8.125 2.02187H7.87031C7.42031 2.02187 7.025 2.11719 6.7 2.29375C6.39062 2.4625 6.14531 2.70625 5.97656 3.01563C5.79844 3.3375 5.70469 3.73437 5.70469 4.18437C5.70469 4.25469 5.64687 4.31094 5.57656 4.31094H4.68437C4.61875 4.3125 4.56094 4.25469 4.56094 4.18437Z" fill="#D83B36"/>
</g>
</svg>
