<svg xmlns="http://www.w3.org/2000/svg" aria-hidden="true" viewBox="0 0 24 24" class="dark:rp-hidden" width="18" height="18" fill="currentColor"><path d="M12 18c-3.3 0-6-2.7-6-6s2.7-6 6-6 6 2.7 6 6-2.7 6-6 6m0-10c-2.2 0-4 1.8-4 4s1.8 4 4 4 4-1.8 4-4-1.8-4-4-4M12 4c-.6 0-1-.4-1-1V1c0-.6.4-1 1-1s1 .4 1 1v2c0 .6-.4 1-1 1M12 24c-.6 0-1-.4-1-1v-2c0-.6.4-1 1-1s1 .4 1 1v2c0 .6-.4 1-1 1M5.6 6.6c-.3 0-.5-.1-.7-.3L3.5 4.9c-.4-.4-.4-1 0-1.4s1-.4 1.4 0l1.4 1.4c.4.4.4 1 0 1.4-.1.2-.4.3-.7.3M19.8 20.8c-.3 0-.5-.1-.7-.3l-1.4-1.4c-.4-.4-.4-1 0-1.4s1-.4 1.4 0l1.4 1.4c.4.4.4 1 0 1.4-.2.2-.5.3-.7.3M3 13H1c-.6 0-1-.4-1-1s.4-1 1-1h2c.6 0 1 .4 1 1s-.4 1-1 1M23 13h-2c-.6 0-1-.4-1-1s.4-1 1-1h2c.6 0 1 .4 1 1s-.4 1-1 1M4.2 20.8c-.3 0-.5-.1-.7-.3-.4-.4-.4-1 0-1.4l1.4-1.4c.4-.4 1-.4 1.4 0s.4 1 0 1.4l-1.4 1.4c-.2.2-.4.3-.7.3M18.4 6.6c-.3 0-.5-.1-.7-.3-.4-.4-.4-1 0-1.4l1.4-1.4c.4-.4 1-.4 1.4 0s.4 1 0 1.4l-1.4 1.4c-.2.2-.5.3-.7.3"></path></svg>
