<svg width="20" height="20" viewBox="0 0 20 20" fill="none" xmlns="http://www.w3.org/2000/svg">
<g clip-path="url(#clip0_5764_12)">
<path d="M10 2.66602C10.5081 2.66604 11.0053 2.71857 11.4854 2.81738C11.7884 2.87997 12.0082 3.14283 12.0166 3.45215C12.0247 3.76191 11.8184 4.03703 11.5186 4.11523C9.98188 4.51599 8.84886 5.9141 8.84863 7.5752C8.84863 9.55001 10.449 11.1513 12.4238 11.1514C14.0852 11.1514 15.4831 10.0174 15.8838 8.48047C15.962 8.18073 16.2372 7.97437 16.5469 7.98242C16.8565 7.99055 17.1201 8.2113 17.1826 8.51465C17.2814 8.99468 17.333 9.49197 17.333 10C17.3328 14.0498 14.0498 17.3328 10 17.333C5.95002 17.333 2.66619 14.0499 2.66602 10C2.66615 5.95002 5.94999 2.66602 10 2.66602Z" fill="#B4B4B4"/>
</g>
<defs>
<clipPath id="clip0_5764_12">
<rect width="16" height="16" fill="white" transform="translate(2 2)"/>
</clipPath>
</defs>
</svg>
