<svg width="20" height="20" viewBox="0 0 20 20" fill="none" xmlns="http://www.w3.org/2000/svg">
<path d="M5.83398 13.207L4.8125 14.2285C4.625 14.416 4.625 14.7227 4.8125 14.9102C5 15.0977 5.30664 15.0977 5.49414 14.9102L6.51562 13.8887C6.70312 13.7012 6.70312 13.3945 6.51562 13.207C6.32812 13.0195 6.02148 13.0195 5.83398 13.207ZM5.54102 5.92773C5.73047 6.11719 6.03906 6.11719 6.22852 5.92773C6.41797 5.73828 6.41797 5.42969 6.22852 5.24023L5.19727 4.20898C5.00781 4.01953 4.69922 4.01953 4.50977 4.20898C4.32031 4.39844 4.32031 4.70703 4.50977 4.89648L5.54102 5.92773ZM4.17578 9.22461H2.7168C2.44727 9.22461 2.23047 9.44141 2.23047 9.71094C2.23047 9.98047 2.44922 10.1973 2.7168 10.1973H4.17578C4.44531 10.1973 4.66211 9.98047 4.66211 9.71094C4.66211 9.44336 4.44336 9.22461 4.17578 9.22461ZM10.0117 4.36133C10.2812 4.36133 10.498 4.14453 10.498 3.875V2.41602C10.498 2.14648 10.2812 1.92969 10.0117 1.92969C9.74219 1.92969 9.52539 2.14648 9.52539 2.41602V3.875C9.52539 4.14453 9.74414 4.36133 10.0117 4.36133ZM14.6914 5.71289L15.7129 4.69141C15.9004 4.50391 15.9004 4.19727 15.7129 4.00977C15.5254 3.82227 15.2187 3.82227 15.0312 4.00977L14.0098 5.03125C13.8223 5.21875 13.8223 5.52539 14.0098 5.71289C14.1973 5.90234 14.5039 5.90234 14.6914 5.71289ZM17.3066 9.22461H15.8477C15.5781 9.22461 15.3613 9.44141 15.3613 9.71094C15.3613 9.98047 15.5781 10.1973 15.8477 10.1973H17.3066C17.5762 10.1973 17.793 9.98047 17.793 9.71094C17.793 9.44336 17.5762 9.22461 17.3066 9.22461ZM14.4824 13.4941C14.293 13.3047 13.9844 13.3047 13.7949 13.4941C13.6055 13.6836 13.6055 13.9922 13.7949 14.1816L14.8262 15.2129C15.0156 15.4023 15.3242 15.4023 15.5137 15.2129C15.7031 15.0234 15.7031 14.7148 15.5137 14.5254L14.4824 13.4941ZM10.0117 5.33203C7.5918 5.33203 5.63086 7.29297 5.63086 9.71289C5.63086 12.1328 7.5918 14.0938 10.0117 14.0938C12.4316 14.0938 14.3926 12.1328 14.3926 9.71289C14.3926 7.29297 12.4316 5.33203 10.0117 5.33203ZM10.0117 15.0605C9.74219 15.0605 9.52539 15.2773 9.52539 15.5469V17.0059C9.52539 17.2754 9.74219 17.4922 10.0117 17.4922C10.2812 17.4922 10.498 17.2754 10.498 17.0059V15.5469C10.498 15.2793 10.2812 15.0605 10.0117 15.0605Z" fill="#595959"/>
</svg>
