<svg width="178" height="135" viewBox="0 0 178 135" fill="none" xmlns="http://www.w3.org/2000/svg">
<g filter="url(#filter0_d_4624_2901)">
<rect width="74" height="97.5" rx="12" transform="matrix(0.866025 0.5 -0.866025 0.5 99.1357 28.5)" fill="url(#paint0_linear_4624_2901)"/>
</g>
<rect x="1.19209e-07" y="-2" width="78" height="101.5" rx="14" transform="matrix(0.866025 0.5 -0.866025 0.5 97.4037 4)" fill="url(#paint1_linear_4624_2901)" stroke="url(#paint2_linear_4624_2901)" stroke-width="4"/>
<path d="M78.1468 31.4043C78.1332 31.2138 78.1864 31.0237 78.3032 30.8454C78.4201 30.667 78.5981 30.5042 78.8267 30.3666C79.0553 30.229 79.3297 30.1195 79.6334 30.0446C79.9371 29.9698 80.2639 29.9312 80.5941 29.9311C80.9243 29.931 81.2512 29.9694 81.555 30.0441C81.8589 30.1187 82.1335 30.2281 82.3623 30.3655C82.5911 30.503 82.7695 30.6657 82.8867 30.844C83.0038 31.0222 83.0574 31.2123 83.0441 31.4028L83.0441 34.4028C83.0577 34.5933 83.0045 34.7834 82.8877 34.9617C82.7708 35.14 82.5928 35.3029 82.3642 35.4405C82.1356 35.5781 81.8612 35.6876 81.5575 35.7624C81.2538 35.8373 80.927 35.8759 80.5968 35.876C80.2666 35.8761 79.9397 35.8377 79.6359 35.763C79.332 35.6884 79.0574 35.579 78.8286 35.4416C78.5998 35.3041 78.4214 35.1414 78.3042 34.9631C78.1871 34.7849 78.1335 34.5948 78.1468 34.4043L78.1468 31.4043ZM68.4689 39.8178C67.8368 39.8027 67.2392 39.6471 66.8012 39.3835C66.3632 39.1198 66.1188 38.7686 66.1192 38.4033C66.1195 38.038 66.3645 37.6869 66.803 37.4236C67.2414 37.1602 67.8393 37.0049 68.4715 36.9903L73.6677 36.9903C73.9976 36.9826 74.3269 37.0136 74.6356 37.0812C74.9443 37.1489 75.2262 37.2518 75.4643 37.3839C75.7024 37.5161 75.8918 37.6746 76.0211 37.85C76.1504 38.0255 76.2169 38.2142 76.2168 38.4048C76.2166 38.5955 76.1497 38.7841 76.02 38.9595C75.8904 39.1348 75.7007 39.2933 75.4624 39.4252C75.2241 39.5572 74.942 39.66 74.6332 39.7275C74.3243 39.7949 73.995 39.8256 73.6651 39.8178L68.4689 39.8178ZM106.575 50.8173C106.248 50.8219 105.923 50.7887 105.619 50.7197C105.315 50.6507 105.037 50.5472 104.804 50.4154C104.57 50.2836 104.384 50.1261 104.257 49.9522C104.13 49.7783 104.064 49.5915 104.064 49.4028C104.064 49.2141 104.13 49.0273 104.257 48.8534C104.384 48.6795 104.57 48.522 104.804 48.3902C105.037 48.2584 105.315 48.1549 105.619 48.0859C105.923 48.0169 106.248 47.9837 106.575 47.9883L111.771 47.9883C112.098 47.9837 112.423 48.0169 112.727 48.0859C113.031 48.1549 113.309 48.2584 113.542 48.3902C113.776 48.522 113.962 48.6795 114.089 48.8534C114.216 49.0273 114.282 49.2141 114.282 49.4028C114.282 49.5915 114.216 49.7783 114.089 49.9522C113.962 50.1261 113.776 50.2836 113.542 50.4154C113.309 50.5472 113.031 50.6507 112.727 50.7197C112.423 50.7887 112.098 50.8219 111.771 50.8173L106.575 50.8173ZM97.1959 53.4033C97.2115 53.0341 97.4764 52.6831 97.9342 52.4252C98.392 52.1672 99.0062 52.0229 99.6458 52.0229C100.285 52.0229 100.9 52.1672 101.358 52.4252C101.815 52.6831 102.08 53.0341 102.096 53.4033L102.096 56.4033C102.104 56.5919 102.046 56.7796 101.927 56.9553C101.807 57.1309 101.628 57.291 101.4 57.426C101.171 57.5611 100.899 57.6684 100.597 57.7417C100.296 57.815 99.9727 57.8527 99.6459 57.8527C99.319 57.8527 98.9954 57.815 98.6942 57.7417C98.393 57.6684 98.1202 57.5611 97.8919 57.426C97.6636 57.291 97.4845 57.1309 97.3649 56.9553C97.2454 56.7796 97.1879 56.5919 97.1959 56.4033L97.1959 53.4033ZM105.71 34.9038C103.872 33.8428 101.38 33.2467 98.7807 33.2467C96.1818 33.2467 93.6893 33.8428 91.8516 34.9038L86.6555 37.9038C86.4315 38.0435 86.1609 38.1558 85.86 38.2337C85.559 38.3117 85.234 38.3537 84.9042 38.3574C84.5744 38.3611 84.2468 38.3263 83.9409 38.2552C83.635 38.184 83.3571 38.0779 83.1238 37.9433C82.8906 37.8086 82.7069 37.6482 82.5836 37.4716C82.4604 37.2949 82.4001 37.1058 82.4065 36.9154C82.4129 36.725 82.4858 36.5373 82.6208 36.3636C82.7558 36.1898 82.9502 36.0336 83.1922 35.9043L88.3884 32.9043C91.1446 31.313 94.8828 30.419 98.7807 30.419C102.679 30.419 106.417 31.313 109.173 32.9043C111.929 34.4956 113.478 36.6539 113.478 38.9043C113.478 41.1547 111.929 43.313 109.173 44.9043L103.977 47.9043C103.753 48.044 103.482 48.1563 103.181 48.2342C102.88 48.3122 102.555 48.3542 102.226 48.3579C101.896 48.3616 101.568 48.3268 101.262 48.2557C100.956 48.1845 100.678 48.0784 100.445 47.9438C100.212 47.8091 100.028 47.6487 99.905 47.4721C99.7817 47.2954 99.7215 47.1063 99.7279 46.9159C99.7343 46.7255 99.8071 46.5378 99.9422 46.3641C100.077 46.1903 100.272 46.0341 100.514 45.9048L105.71 42.9048C107.547 41.8438 108.58 40.4048 108.58 38.9043C108.58 37.4038 107.547 35.9648 105.71 34.9038ZM76.2658 39.9033C76.4898 39.7635 76.7603 39.6513 77.0613 39.5734C77.3622 39.4954 77.6873 39.4533 78.017 39.4496C78.3468 39.446 78.6744 39.4807 78.9803 39.5519C79.2863 39.6231 79.5642 39.7292 79.7974 39.8638C80.0306 39.9985 80.2143 40.1589 80.3376 40.3355C80.4609 40.5121 80.5211 40.7013 80.5147 40.8917C80.5083 41.0821 80.4355 41.2698 80.3004 41.4435C80.1654 41.6172 79.9711 41.7735 79.729 41.9028L74.5328 44.9028C72.6951 45.9638 71.6627 47.4028 71.6627 48.9033C71.6627 50.4038 72.6951 51.8428 74.5328 52.9038C76.3705 53.9648 78.863 54.5608 81.4619 54.5609C84.0608 54.5608 86.5533 53.9648 88.391 52.9038L93.5871 49.9038C94.0521 49.6554 94.6657 49.5205 95.2991 49.5276C95.9325 49.5347 96.5366 49.6831 96.9846 49.9418C97.4326 50.2004 97.6897 50.5492 97.7019 50.9149C97.7142 51.2806 97.4807 51.6348 97.0504 51.9033L91.8542 54.9033C89.098 56.4946 85.3598 57.3886 81.4619 57.3886C77.564 57.3886 73.8258 56.4946 71.0696 54.9033C68.3134 53.312 66.765 51.1537 66.765 48.9033C66.765 46.6528 68.3134 44.4946 71.0696 42.9033L76.2658 39.9033Z" fill="url(#paint3_linear_4624_2901)"/>
<path d="M108.005 6.6979L111.216 4.84376C112.17 4.29319 113.463 3.98389 114.812 3.98389C116.161 3.98389 117.454 4.29319 118.408 4.84376C119.361 5.39432 119.897 6.14104 119.897 6.91965C119.897 7.69826 119.361 8.44498 118.408 8.99555L108.819 14.5313C108.502 14.7148 108.07 14.8179 107.621 14.8179C107.171 14.8179 106.74 14.7148 106.422 14.5313C106.105 14.3477 105.926 14.0988 105.926 13.8393C105.926 13.5798 106.105 13.3309 106.422 13.1473L116.011 7.61162L113.613 6.22769L104.025 11.7634C103.072 12.314 102.536 13.0607 102.536 13.8393C102.536 14.6179 103.072 15.3646 104.025 15.9152C104.979 16.4658 106.272 16.7751 107.621 16.7751C108.969 16.7751 110.263 16.4658 111.216 15.9152L120.805 10.3795C122.394 9.46187 123.287 8.21734 123.287 6.91965C123.287 5.62196 122.394 4.37743 120.805 3.45983C119.215 2.54222 117.06 2.02672 114.812 2.02672C112.564 2.02672 110.409 2.54222 108.819 3.45983L104.425 5.99704L108.005 6.6979Z" fill="black"/>
<defs>
<filter id="filter0_d_4624_2901" x="0.786133" y="16.0147" width="176.348" height="118.721" filterUnits="userSpaceOnUse" color-interpolation-filters="sRGB">
<feFlood flood-opacity="0" result="BackgroundImageFix"/>
<feColorMatrix in="SourceAlpha" type="matrix" values="0 0 0 0 0 0 0 0 0 0 0 0 0 0 0 0 0 0 127 0" result="hardAlpha"/>
<feOffset dy="4"/>
<feGaussianBlur stdDeviation="10"/>
<feComposite in2="hardAlpha" operator="out"/>
<feColorMatrix type="matrix" values="0 0 0 0 0 0 0 0 0 0 0 0 0 0 0 0 0 0 0.04 0"/>
<feBlend mode="normal" in2="BackgroundImageFix" result="effect1_dropShadow_4624_2901"/>
<feBlend mode="normal" in="SourceGraphic" in2="effect1_dropShadow_4624_2901" result="shape"/>
</filter>
<linearGradient id="paint0_linear_4624_2901" x1="37" y1="0" x2="37" y2="97.5" gradientUnits="userSpaceOnUse">
<stop stop-color="#D9D9D9"/>
<stop offset="1" stop-color="#E9E9EB"/>
</linearGradient>
<linearGradient id="paint1_linear_4624_2901" x1="37" y1="0" x2="37" y2="97.5" gradientUnits="userSpaceOnUse">
<stop stop-color="#7D7E80"/>
<stop offset="1" stop-color="#C7C9CC"/>
</linearGradient>
<linearGradient id="paint2_linear_4624_2901" x1="37" y1="0" x2="37" y2="97.5" gradientUnits="userSpaceOnUse">
<stop stop-color="white"/>
<stop offset="1" stop-color="white" stop-opacity="0.2"/>
</linearGradient>
<linearGradient id="paint3_linear_4624_2901" x1="72.7501" y1="33.8745" x2="90.1107" y2="63.9439" gradientUnits="userSpaceOnUse">
<stop stop-color="white"/>
<stop offset="1" stop-color="white" stop-opacity="0.5"/>
</linearGradient>
</defs>
</svg>
