<svg width="29" height="29" viewBox="0 0 29 29" fill="none" xmlns="http://www.w3.org/2000/svg">
  <rect x="0.5" y="0.5" width="28" height="28" rx="14" fill="black"/>
  <rect x="0.5" y="0.5" width="28" height="28" rx="14" stroke="black"/>
  <path d="M14.5 7.5C16.3565 7.5 18.137 8.2375 19.4497 9.55025C20.7625 10.863 21.5 12.6435 21.5 14.5C21.5 16.3565 20.7625 18.137 19.4497 19.4497C18.137 20.7625 16.3565 21.5 14.5 21.5C12.6435 21.5 10.863 20.7625 9.55025 19.4497C8.2375 18.137 7.5 16.3565 7.5 14.5C7.5 12.6435 8.2375 10.863 9.55025 9.55025C10.863 8.2375 12.6435 7.5 14.5 7.5ZM14.5 8.6C12.9352 8.6 11.4345 9.22161 10.3281 10.3281C9.22161 11.4345 8.6 12.9352 8.6 14.5C8.6 16.0648 9.22161 17.5655 10.3281 18.6719C11.4345 19.7784 12.9352 20.4 14.5 20.4C16.0648 20.4 17.5655 19.7784 18.6719 18.6719C19.7784 17.5655 20.4 16.0648 20.4 14.5C20.4 12.9352 19.7784 11.4345 18.6719 10.3281C17.5655 9.22161 16.0648 8.6 14.5 8.6Z" fill="white" fill-opacity="0.9"/>
  <path d="M16.4 12.5H12.6C12.5735 12.5 12.548 12.5105 12.5293 12.5293C12.5105 12.548 12.5 12.5735 12.5 12.6V16.4C12.5 16.4265 12.5105 16.452 12.5293 16.4707C12.548 16.4895 12.5735 16.5 12.6 16.5H16.4C16.4265 16.5 16.452 16.4895 16.4707 16.4707C16.4895 16.452 16.5 16.4265 16.5 16.4V12.6C16.5 12.5735 16.4895 12.548 16.4707 12.5293C16.452 12.5105 16.4265 12.5 16.4 12.5Z" fill="white" fill-opacity="0.9"/>
</svg>
