<svg width="16" height="16" viewBox="0 0 16 16" fill="none" xmlns="http://www.w3.org/2000/svg">
<g clip-path="url(#clip0_1693_247)">
<path d="M4.88251 2.66318L4.02463 4.66448H1.3342V13.3368H14.6762V4.66448H11.3187L10.4601 2.66318H4.88318H4.88251ZM3.14472 3.33028L4.00261 1.32898H11.3407L12.1986 3.33028H14.6762C15.0301 3.33028 15.3694 3.47085 15.6196 3.72106C15.8699 3.97127 16.0104 4.31063 16.0104 4.66448V13.3368C16.0104 13.512 15.9759 13.6855 15.9089 13.8474C15.8418 14.0092 15.7435 14.1563 15.6196 14.2802C15.4958 14.4041 15.3487 14.5024 15.1868 14.5694C15.0249 14.6365 14.8514 14.671 14.6762 14.671H1.3342C0.98035 14.671 0.64099 14.5304 0.390779 14.2802C0.140567 14.03 0 13.6906 0 13.3368L0 4.66448C0 4.31063 0.140567 3.97127 0.390779 3.72106C0.64099 3.47085 0.98035 3.33028 1.3342 3.33028H3.14472Z" fill="#606266"/>
<path d="M8.00521 10.0013C8.35906 10.0013 8.69842 9.86074 8.94863 9.61053C9.19885 9.36032 9.33941 9.02096 9.33941 8.66711C9.33941 8.31326 9.19885 7.9739 8.94863 7.72369C8.69842 7.47347 8.35906 7.33291 8.00521 7.33291C7.65136 7.33291 7.312 7.47347 7.06179 7.72369C6.81158 7.9739 6.67101 8.31326 6.67101 8.66711C6.67101 9.02096 6.81158 9.36032 7.06179 9.61053C7.312 9.86074 7.65136 10.0013 8.00521 10.0013ZM8.00521 11.3355C7.29751 11.3355 6.61879 11.0544 6.11836 10.554C5.61794 10.0535 5.33681 9.37481 5.33681 8.66711C5.33681 7.9594 5.61794 7.28068 6.11836 6.78026C6.61879 6.27984 7.29751 5.9987 8.00521 5.9987C8.71292 5.9987 9.39163 6.27984 9.89206 6.78026C10.3925 7.28068 10.6736 7.9594 10.6736 8.66711C10.6736 9.37481 10.3925 10.0535 9.89206 10.554C9.39163 11.0544 8.71292 11.3355 8.00521 11.3355ZM11.3407 5.3316H12.0078C12.4526 5.3316 12.6749 5.55397 12.6749 5.9987C12.6749 6.44344 12.4526 6.66581 12.0078 6.66581H11.3407C10.896 6.66581 10.6736 6.44344 10.6736 5.9987C10.6736 5.55397 10.896 5.3316 11.3407 5.3316Z" fill="#606266"/>
</g>
<defs>
<clipPath id="clip0_1693_247">
<rect width="16" height="16" fill="white"/>
</clipPath>
</defs>
</svg>
