<?xml version="1.0" encoding="UTF-8"?>
<svg width="120px" height="48px" viewBox="0 0 120 48" version="1.1" xmlns="http://www.w3.org/2000/svg" xmlns:xlink="http://www.w3.org/1999/xlink">
    <g id="规范" stroke="none" stroke-width="1" fill="none" fill-rule="evenodd">
        <g id="1、导航重构-1440导航收起" transform="translate(-20.000000, -8.000000)" fill="#34C759">
            <g id="3.导航/4.导航菜单/1.基础控件/2.左侧导航/1.有图标/logo" transform="translate(20.000000, 8.000000)">
                <path d="M101.675388,14.0007433 C102.175987,14.0007433 102.582137,14.4257388 102.583332,14.9508157 L102.613533,28.2316083 C102.613533,28.6260828 102.918409,28.9458675 103.294493,28.9458675 L116.056779,28.9458675 C116.558224,28.9458675 116.964726,29.3722471 116.964726,29.8982131 L116.964726,33.0476544 C116.964726,33.5736204 116.558224,34 116.056779,34 L103.604747,34 C100.347154,33.9951629 97.7056403,31.2266414 97.6984842,27.8097558 L97.6889056,14.9530886 C97.6878428,14.4430617 98.0697501,14.0263633 98.5501235,14.0012026 L98.5957929,14.0000929 L98.5957929,14.0000929 L101.675388,14.0007433 Z M95.4061536,14 C95.9045291,14 96.3085423,14.4263955 96.3085423,14.952381 L96.3085423,18.1060977 C96.3085423,18.6320831 95.9045291,19.0584786 95.4061536,19.0584786 L80.4511339,19.0584786 C79.9546991,19.0584786 79.5514943,19.4816825 79.5487589,20.0056118 L79.5413134,21.4316699 L95.4061536,21.4316699 C95.9045291,21.4316699 96.3085423,21.8580653 96.3085423,22.3840508 L96.3085423,25.5458294 C96.3078336,26.0715229 95.904252,26.4977973 95.4061539,26.498958 L79.5666843,26.5120812 L79.5590973,27.9118532 C79.5561362,28.4378294 79.9577419,28.8667507 80.4561086,28.8698758 L95.4061536,28.8698926 C95.9045291,28.8698926 96.3085423,29.2962881 96.3085423,29.8222736 L96.3085423,33.047619 C96.3085423,33.5736045 95.9045291,34 95.4061536,34 L80.5319051,34 C77.3248586,34 74.7189616,31.2315003 74.6671644,27.8598113 L74.6663833,27.749538 L74.6755989,20.1825737 C74.6797305,16.7667566 77.3046035,14 80.5411206,14 L95.4061536,14 Z M72.2856637,14 C72.7836901,14 73.1874203,14.4263955 73.1874203,14.952381 L73.1874203,17.9357454 C73.1874203,18.4617309 72.7836901,18.8881264 72.2856637,18.8881264 L64.8336584,18.8881264 L64.8336584,33.047619 C64.8336584,33.5736045 64.4299282,34 63.9319017,34 L60.809655,34 C60.3116286,34 59.9078984,33.5736045 59.9078984,33.047619 L59.9078984,18.8881264 L52.6442131,18.8881264 C52.1461866,18.8881264 51.7424564,18.4617309 51.7424564,17.9357454 L51.7424564,14.952381 C51.7424564,14.4263955 52.1461866,14 52.6442131,14 L72.2856637,14 Z M31.6623271,14.0007253 C32.1597632,14.0010549 32.5629561,14.4277951 32.5631568,14.9541651 L32.5631568,28.0432921 C32.5631568,28.5697451 32.966472,28.9965196 33.4639865,28.9965196 L44.1933246,28.9965196 C44.6907635,28.9963147 45.0940474,28.5696651 45.0943479,28.0432921 L45.0970172,14.9530151 C45.0971137,14.4425152 45.4764404,14.0258305 45.9530724,14.0011489 L45.9980405,14 L49.0668711,14.0007249 C49.5643071,14.0010551 49.9677008,14.4277952 49.9677008,14.9541651 L49.9677008,27.8040214 C49.9677008,31.2259659 47.3461519,34 44.1123075,34 L33.5400513,34 C30.3062068,34 27.6846579,31.2259659 27.6846579,27.8040214 L27.6846579,14.9530151 C27.6846579,14.4425152 28.0636997,14.0257443 28.5403266,14.0009542 L31.6623271,14.0007253 Z M13.0889266,14 L14.195653,14.0031043 L14.1956396,14.0064286 L15.682729,14.0029945 L16.9824803,14.0046879 C17.2099019,14.0053558 17.4427217,14.0062165 17.6809397,14.00727 L17.81602,14.011805 L17.9584828,14.0196515 C19.0431455,14.0914354 20.4819509,14.4628029 21.5890197,15.7105456 C22.6538538,16.9111495 23.2764867,19.1735966 23.4061855,19.6805275 L23.4316655,19.7830391 L25.716175,29.4135897 L26.5233416,32.8055028 C26.6447261,33.3155903 26.3521088,33.833159 25.8697627,33.9615247 C25.7988119,33.9804067 25.7259498,33.9900753 25.6527872,33.9903167 L22.7187435,34 L22.4086046,34 C22.0103649,34 21.6594078,33.7234008 21.5455805,33.3198264 L21.4785538,33.0821832 L20.5075677,29.0486021 L10.0024006,29.048594 C9.50501476,29.0485936 9.10180508,28.622193 9.10180508,28.0962015 C9.10180508,28.02081 9.11027023,27.9456851 9.12702259,27.8724047 L9.86613341,24.6392855 C9.96385579,24.211815 10.3256453,23.9106907 10.7415123,23.9106911 L19.290586,23.9106994 L18.3929344,20.2233885 L18.2451181,19.6735112 C18.1503142,19.32084 17.8544524,19.0729735 17.5115474,19.0529349 L17.4665666,19.0516233 L14.3833422,19.0609991 L14.1579382,19.0601537 L14.1578145,19.0572008 L13.970249,19.0578171 L11.0842197,19.0484413 L11.0392388,19.0497529 C10.7112428,19.0689203 10.4262881,19.2965351 10.3191614,19.6249331 L10.3056681,19.6703292 L10.1578519,20.2202065 L7.07223243,33.0790012 L7.0052057,33.3166444 C6.89575645,33.7046967 6.5670672,33.9753533 6.18791171,33.995599 L6.14218162,33.996818 L5.83204273,33.996818 L2.89799904,33.9871347 C2.82483647,33.9868933 2.75197432,33.9772247 2.68102356,33.9583427 C2.21375072,33.8339884 1.92453401,33.3443763 2.01727089,32.8501513 L2.02744464,32.8023208 L2.83461127,29.4104077 L5.11912073,19.7798571 L5.17021568,19.5791813 L5.22264981,19.3876238 C5.44819633,18.5859726 6.03891032,16.747887 6.96176651,15.7073636 C8.09343682,14.4318933 9.57175147,14.072181 10.6640821,14.0121214 L10.7347663,14.008623 L10.8698465,14.004088 L12.0251244,14.0004102 L13.0889266,14 Z M114.915674,14.0801918 C115.800469,14.0801918 116.536592,14.37356 117.121634,14.95947 C117.707479,15.5470327 118,16.2874775 118,17.1816306 C118,18.0617352 117.699443,18.7997008 117.101543,19.3930482 C116.502036,19.9880485 115.763502,20.2847222 114.885136,20.2847222 C113.995519,20.2847222 113.258592,19.9963124 112.672747,19.4161871 C112.089312,18.8377147 111.796791,18.0980963 111.796791,17.1981584 C111.796791,16.3180539 112.095741,15.5792619 112.694445,14.9793033 C113.292344,14.3801711 114.03329,14.0801918 114.915674,14.0801918 Z M114.903619,14.537185 C114.160263,14.537185 113.541469,14.7892338 113.052059,15.2958104 C112.560239,15.8007342 112.315935,16.4296164 112.315935,17.1816306 C112.315935,17.9386032 112.563453,18.566659 113.060899,19.0707564 C113.557542,19.5732011 114.17071,19.8244234 114.903619,19.8244234 C115.618045,19.8244234 116.227195,19.5715483 116.72866,19.0666245 C117.22932,18.5600479 117.48166,17.936124 117.48166,17.1898945 C117.48166,16.4320956 117.233338,15.8007342 116.739107,15.2958104 C116.245679,14.7892338 115.634118,14.537185 114.903619,14.537185 Z M114.878385,15.0598545 C115.831956,15.0598545 116.309125,15.4299493 116.309125,16.1684643 C116.309125,16.7068601 116.025132,17.05351 115.455607,17.2117632 L115.455607,17.2259976 C115.685726,17.2812606 115.872746,17.4931022 116.014358,17.8573358 L116.449198,18.9785053 L115.502554,18.9785053 L115.193164,17.9954933 C115.079259,17.637121 114.928411,17.4579348 114.739083,17.4579348 L114.442775,17.4579348 L114.442775,18.9785053 L113.657754,18.9785053 L113.657754,15.0598545 L114.878385,15.0598545 Z M114.80681,15.7765992 L114.442775,15.7765992 L114.442775,16.7956158 L114.88993,16.7956158 C115.266278,16.7956158 115.455607,16.6206163 115.455607,16.2697798 C115.455607,15.9407136 115.239341,15.7765992 114.80681,15.7765992 Z" id="形状结合"></path>
            </g>
        </g>
    </g>
</svg>