<svg xmlns="http://www.w3.org/2000/svg" width="76" height="14" viewBox="0 0 76 14" fill="none">
  <path fill="#111113" d="M7.622 5.098.66 12.018h1.077a1.87 1.87 0 0 0 1.319-.544l4.708-4.68a.52.52 0 0 1 .733 0l4.709 4.68c.35.348.824.543 1.318.543h1.078L8.64 5.098a.723.723 0 0 0-1.02 0M29.476 4.888a1.87 1.87 0 0 0-1.318.544l-4.708 4.68a.52.52 0 0 1-.733 0l-4.709-4.68a1.87 1.87 0 0 0-1.318-.544h-1.078l6.962 6.92c.282.28.737.28 1.019 0l6.961-6.92zM52.883 7.567h-.644a.332.332 0 0 0-.333.333v3.785c0 .184.149.332.333.332h.644a.332.332 0 0 0 .333-.332V7.9a.332.332 0 0 0-.333-.333M58.864 5.433a1.876 1.876 0 0 0-1.322-.543H45.496l.762.755c.351.349.826.544 1.321.544h12.047zM37.515 5.098l-6.96 6.92h1.077a1.87 1.87 0 0 0 1.318-.544l4.709-4.68a.52.52 0 0 1 .733 0l4.708 4.68c.35.348.824.543 1.318.543h1.078l-6.961-6.919a.723.723 0 0 0-1.02 0M72.221 8.932h1.076a2.03 2.03 0 0 0 2.04-2.113c-.048-1.09-.995-1.93-2.092-1.93H62.508l.764.756c.352.349.828.544 1.324.544h8.656c.383 0 .727.278.76.657a.725.725 0 0 1-.726.787H62.842a.333.333 0 0 0-.334.332v3.72c0 .184.15.332.334.332h.646a.333.333 0 0 0 .333-.332V8.932h6.543l2.568 2.537c.352.351.83.548 1.328.548h1.08z"/>
</svg>
