<?xml version="1.0" encoding="UTF-8" standalone="no"?>
<!DOCTYPE svg PUBLIC "-//W3C//DTD SVG 1.1//EN" "http://www.w3.org/Graphics/SVG/1.1/DTD/svg11.dtd">
<svg width="100%" height="100%" viewBox="0 0 4446 1260" version="1.1" xmlns="http://www.w3.org/2000/svg" xmlns:xlink="http://www.w3.org/1999/xlink" xml:space="preserve" xmlns:serif="http://www.serif.com/" style="fill-rule:evenodd;clip-rule:evenodd;stroke-miterlimit:10;">
    <g transform="matrix(1,0,0,1,-10777.03138,-1620.488046)">
        <g transform="matrix(4.166667,0,0,4.166667,9000,0)">
            <g transform="matrix(1,0,0,1,750.9016,432.6989)">
                <path d="M0,209.099L-8.254,209.099C-9.773,209.099 -11.005,207.867 -11.005,206.348L-11.005,2.752C-11.005,1.232 -9.773,0.001 -8.254,0.001L0,0.001C1.519,0.001 2.751,1.232 2.751,2.752L2.751,206.348C2.751,207.867 1.519,209.099 0,209.099M27.513,-22.01L-35.767,-22.01C-41.845,-22.01 -46.772,-17.083 -46.772,-11.005L-46.772,220.104C-46.772,226.182 -41.845,231.109 -35.767,231.109L27.513,231.109C33.591,231.109 38.518,226.182 38.518,220.104L38.518,-11.005C38.518,-17.083 33.591,-22.01 27.513,-22.01" style="fill:rgb(255,85,136);fill-rule:nonzero;"/>
            </g>
            <g transform="matrix(1,0,0,1,475.772,432.6989)">
                <path d="M0,209.099L-8.254,209.099C-9.773,209.099 -11.005,207.867 -11.005,206.348L-11.005,2.752C-11.005,1.232 -9.773,0.001 -8.254,0.001L0,0.001C1.519,0.001 2.751,1.232 2.751,2.752L2.751,206.348C2.751,207.867 1.519,209.099 0,209.099M27.513,-22.01L-35.767,-22.01C-41.845,-22.01 -46.772,-17.083 -46.772,-11.005L-46.772,220.104C-46.772,226.182 -41.845,231.109 -35.767,231.109L27.513,231.109C33.591,231.109 38.518,226.182 38.518,220.104L38.518,-11.005C38.518,-17.083 33.591,-22.01 27.513,-22.01" style="fill:rgb(255,85,136);fill-rule:nonzero;"/>
            </g>
            <g transform="matrix(1,0,0,1,841.6943,548.2541)">
                <path d="M0,-16.508L0,-61.904L13.757,-61.904L13.757,-13.757L2.751,-13.757C1.232,-13.757 0,-14.989 0,-16.508M2.751,-132.062L13.757,-132.062L13.757,-83.915L0,-83.915L0,-129.311C0,-130.831 1.232,-132.062 2.751,-132.062M41.269,-61.904L55.026,-61.904L55.026,-16.508C55.026,-14.989 53.794,-13.757 52.275,-13.757L41.269,-13.757L41.269,-61.904ZM41.269,-132.062L52.275,-132.062C53.794,-132.062 55.026,-130.831 55.026,-129.311L55.026,-83.915L41.269,-83.915L41.269,-132.062ZM96.295,115.554L49.523,115.554L49.523,60.528L88.042,60.528C89.561,60.528 90.793,59.296 90.793,57.777L90.793,41.269C90.793,39.749 89.561,38.518 88.042,38.518L49.523,38.518L49.523,8.254L82.539,8.254C88.617,8.254 93.544,3.326 93.544,-2.752L93.544,-143.068C93.544,-149.146 88.617,-154.073 82.539,-154.073L-27.513,-154.073C-33.591,-154.073 -38.518,-149.146 -38.518,-143.068L-38.518,-2.752C-38.518,3.326 -33.591,8.254 -27.513,8.254L5.503,8.254L5.503,38.518L-33.016,38.518C-34.535,38.518 -35.767,39.749 -35.767,41.269L-35.767,57.777C-35.767,59.296 -34.535,60.528 -33.016,60.528L5.503,60.528L5.503,115.554L-35.767,115.554C-37.286,115.554 -38.518,116.786 -38.518,118.305L-38.518,134.813C-38.518,136.332 -37.286,137.565 -35.767,137.565L96.295,137.565C97.815,137.565 99.047,136.332 99.047,134.813L99.047,118.305C99.047,116.786 97.815,115.554 96.295,115.554" style="fill:rgb(255,85,136);fill-rule:nonzero;"/>
            </g>
            <g transform="matrix(1,0,0,1,587.2231,413.4396)">
                <path d="M0,104.55L-15.156,104.55C-18.195,104.55 -20.658,102.086 -20.658,99.047L-20.658,46.773L-1.399,46.773C0.12,46.773 1.352,45.54 1.352,44.021L1.352,27.514C1.352,25.994 0.12,24.762 -1.399,24.762L-20.658,24.762L-20.658,-19.258C-20.658,-20.778 -21.89,-22.01 -23.41,-22.01L-56.425,-22.01C-57.945,-22.01 -59.177,-20.778 -59.177,-19.258L-59.177,115.555C-59.177,121.633 -54.25,126.56 -48.171,126.56L-8.828,126.56C-6.62,126.56 -4.626,125.24 -3.763,123.207L2.533,108.376C3.303,106.561 1.971,104.55 0,104.55" style="fill:rgb(255,85,136);fill-rule:nonzero;"/>
            </g>
            <g transform="matrix(1,0,0,1,655.9519,413.4396)">
                <path d="M0,104.55L-15.102,104.55C-18.141,104.55 -20.605,102.086 -20.605,99.047L-20.605,44.437L0.804,35.349C2.837,34.486 4.157,32.492 4.157,30.284L4.157,16.072C4.157,14.101 2.145,12.77 0.33,13.54L-20.605,22.426L-20.605,-19.258C-20.605,-20.778 -21.837,-22.01 -23.356,-22.01L-56.373,-22.01C-57.892,-22.01 -59.123,-20.779 -59.124,-19.259L-59.172,115.551C-59.174,121.631 -54.247,126.56 -48.167,126.56L-8.828,126.56C-6.62,126.56 -4.625,125.24 -3.763,123.207L2.533,108.376C3.303,106.561 1.971,104.55 0,104.55" style="fill:rgb(255,85,136);fill-rule:nonzero;"/>
            </g>
            <g transform="matrix(1,0,0,1,577.5699,551.0049)">
                <path d="M0,137.565L38.518,137.565C40.037,137.565 41.269,136.333 41.269,134.814L41.269,52.275L85.29,52.275C86.809,52.275 88.041,51.043 88.041,49.524L88.041,33.016C88.041,31.496 86.809,30.264 85.29,30.264L41.269,30.264L41.269,2.752C41.269,1.232 40.037,0 38.518,0L0,0C-1.52,0 -2.751,1.232 -2.751,2.752L-2.751,30.264L-46.772,30.264C-48.292,30.264 -49.523,31.496 -49.523,33.016L-49.523,49.524C-49.523,51.043 -48.292,52.275 -46.772,52.275L-2.751,52.275L-2.751,134.814C-2.751,136.333 -1.52,137.565 0,137.565" style="fill:rgb(255,85,136);fill-rule:nonzero;"/>
            </g>
            <g transform="matrix(1,0,0,1,1301.1606,432.6989)">
                <path d="M0,209.099L-8.254,209.099C-9.773,209.099 -11.005,207.867 -11.005,206.348L-11.005,2.752C-11.005,1.232 -9.773,0.001 -8.254,0.001L0,0.001C1.519,0.001 2.751,1.232 2.751,2.752L2.751,206.348C2.751,207.867 1.519,209.099 0,209.099M27.513,-22.01L-35.767,-22.01C-41.845,-22.01 -46.772,-17.083 -46.772,-11.005L-46.772,220.104C-46.772,226.182 -41.845,231.109 -35.767,231.109L27.513,231.109C33.591,231.109 38.518,226.182 38.518,220.104L38.518,-11.005C38.518,-17.083 33.591,-22.01 27.513,-22.01" style="fill:rgb(255,85,136);fill-rule:nonzero;"/>
            </g>
            <g transform="matrix(1,0,0,1,1026.0311,432.6989)">
                <path d="M0,209.099L-8.254,209.099C-9.773,209.099 -11.005,207.867 -11.005,206.348L-11.005,2.752C-11.005,1.232 -9.773,0.001 -8.254,0.001L0,0.001C1.519,0.001 2.751,1.232 2.751,2.752L2.751,206.348C2.751,207.867 1.519,209.099 0,209.099M27.513,-22.01L-35.767,-22.01C-41.845,-22.01 -46.772,-17.083 -46.772,-11.005L-46.772,220.104C-46.772,226.182 -41.845,231.109 -35.767,231.109L27.513,231.109C33.591,231.109 38.518,226.182 38.518,220.104L38.518,-11.005C38.518,-17.083 33.591,-22.01 27.513,-22.01" style="fill:rgb(255,85,136);fill-rule:nonzero;"/>
            </g>
            <g transform="matrix(1,0,0,1,1391.9534,548.2541)">
                <path d="M0,-16.508L0,-61.904L13.756,-61.904L13.756,-13.757L2.751,-13.757C1.232,-13.757 0,-14.989 0,-16.508M2.751,-132.062L13.756,-132.062L13.756,-83.915L0,-83.915L0,-129.311C0,-130.831 1.232,-132.062 2.751,-132.062M41.269,-61.904L55.026,-61.904L55.026,-16.508C55.026,-14.989 53.794,-13.757 52.275,-13.757L41.269,-13.757L41.269,-61.904ZM41.269,-132.062L52.275,-132.062C53.794,-132.062 55.026,-130.831 55.026,-129.311L55.026,-83.915L41.269,-83.915L41.269,-132.062ZM96.295,115.554L49.523,115.554L49.523,60.528L88.042,60.528C89.561,60.528 90.793,59.296 90.793,57.777L90.793,41.269C90.793,39.749 89.561,38.518 88.042,38.518L49.523,38.518L49.523,8.254L82.539,8.254C88.617,8.254 93.544,3.326 93.544,-2.752L93.544,-143.068C93.544,-149.146 88.617,-154.073 82.539,-154.073L-27.513,-154.073C-33.591,-154.073 -38.518,-149.146 -38.518,-143.068L-38.518,-2.752C-38.518,3.326 -33.591,8.254 -27.513,8.254L5.503,8.254L5.503,38.518L-33.016,38.518C-34.535,38.518 -35.767,39.749 -35.767,41.269L-35.767,57.777C-35.767,59.296 -34.535,60.528 -33.016,60.528L5.503,60.528L5.503,115.554L-35.767,115.554C-37.286,115.554 -38.518,116.786 -38.518,118.305L-38.518,134.813C-38.518,136.332 -37.286,137.565 -35.767,137.565L96.295,137.565C97.815,137.565 99.047,136.332 99.047,134.813L99.047,118.305C99.047,116.786 97.815,115.554 96.295,115.554" style="fill:rgb(255,85,136);fill-rule:nonzero;"/>
            </g>
            <g transform="matrix(1,0,0,1,1137.4822,413.4396)">
                <path d="M0,104.55L-15.156,104.55C-18.195,104.55 -20.658,102.086 -20.658,99.047L-20.658,46.773L-1.399,46.773C0.12,46.773 1.352,45.54 1.352,44.021L1.352,27.514C1.352,25.994 0.12,24.762 -1.399,24.762L-20.658,24.762L-20.658,-19.258C-20.658,-20.778 -21.89,-22.01 -23.41,-22.01L-56.425,-22.01C-57.945,-22.01 -59.177,-20.778 -59.177,-19.258L-59.177,115.555C-59.177,121.633 -54.25,126.56 -48.171,126.56L-8.828,126.56C-6.62,126.56 -4.626,125.24 -3.763,123.207L2.533,108.376C3.303,106.561 1.971,104.55 0,104.55" style="fill:rgb(255,85,136);fill-rule:nonzero;"/>
            </g>
            <g transform="matrix(1,0,0,1,1206.2109,413.4396)">
                <path d="M0,104.55L-15.102,104.55C-18.141,104.55 -20.605,102.086 -20.605,99.047L-20.605,44.437L0.804,35.349C2.837,34.486 4.157,32.492 4.157,30.284L4.157,16.072C4.157,14.101 2.145,12.77 0.33,13.54L-20.605,22.426L-20.605,-19.258C-20.605,-20.778 -21.837,-22.01 -23.356,-22.01L-56.373,-22.01C-57.892,-22.01 -59.123,-20.779 -59.124,-19.259L-59.172,115.551C-59.174,121.631 -54.246,126.56 -48.167,126.56L-8.828,126.56C-6.62,126.56 -4.625,125.24 -3.763,123.207L2.533,108.376C3.303,106.561 1.971,104.55 0,104.55" style="fill:rgb(255,85,136);fill-rule:nonzero;"/>
            </g>
            <g transform="matrix(1,0,0,1,1127.829,551.0049)">
                <path d="M0,137.565L38.518,137.565C40.037,137.565 41.269,136.333 41.269,134.814L41.269,52.275L85.29,52.275C86.809,52.275 88.042,51.043 88.042,49.524L88.042,33.016C88.042,31.496 86.809,30.264 85.29,30.264L41.269,30.264L41.269,2.752C41.269,1.232 40.037,0 38.518,0L0,0C-1.52,0 -2.751,1.232 -2.751,2.752L-2.751,30.264L-46.772,30.264C-48.292,30.264 -49.523,31.496 -49.523,33.016L-49.523,49.524C-49.523,51.043 -48.292,52.275 -46.772,52.275L-2.751,52.275L-2.751,134.814C-2.751,136.333 -1.52,137.565 0,137.565" style="fill:rgb(255,85,136);fill-rule:nonzero;"/>
            </g>
            <g opacity="0.4">
                <g>
                    <clipPath id="_clip1">
                        <rect x="428.75" y="391.18" width="1062.5" height="297.64" clip-rule="nonzero"/>
                    </clipPath>
                    <g clip-path="url(#_clip1)">
                        <g transform="matrix(1,0,0,1,750.9016,432.6989)">
                            <path d="M0,209.099L-8.254,209.099C-9.773,209.099 -11.005,207.867 -11.005,206.348L-11.005,2.752C-11.005,1.232 -9.773,0.001 -8.254,0.001L0,0.001C1.519,0.001 2.751,1.232 2.751,2.752L2.751,206.348C2.751,207.867 1.519,209.099 0,209.099ZM27.513,-22.01L-35.767,-22.01C-41.845,-22.01 -46.772,-17.083 -46.772,-11.005L-46.772,220.104C-46.772,226.182 -41.845,231.109 -35.767,231.109L27.513,231.109C33.591,231.109 38.518,226.182 38.518,220.104L38.518,-11.005C38.518,-17.083 33.591,-22.01 27.513,-22.01Z" style="fill:none;fill-rule:nonzero;stroke:black;stroke-width:0.5px;"/>
                        </g>
                        <g transform="matrix(1,0,0,1,475.772,432.6989)">
                            <path d="M0,209.099L-8.254,209.099C-9.773,209.099 -11.005,207.867 -11.005,206.348L-11.005,2.752C-11.005,1.232 -9.773,0.001 -8.254,0.001L0,0.001C1.519,0.001 2.751,1.232 2.751,2.752L2.751,206.348C2.751,207.867 1.519,209.099 0,209.099ZM27.513,-22.01L-35.767,-22.01C-41.845,-22.01 -46.772,-17.083 -46.772,-11.005L-46.772,220.104C-46.772,226.182 -41.845,231.109 -35.767,231.109L27.513,231.109C33.591,231.109 38.518,226.182 38.518,220.104L38.518,-11.005C38.518,-17.083 33.591,-22.01 27.513,-22.01Z" style="fill:none;fill-rule:nonzero;stroke:black;stroke-width:0.5px;"/>
                        </g>
                        <g transform="matrix(1,0,0,1,841.6943,548.2541)">
                            <path d="M0,-16.508L0,-61.904L13.757,-61.904L13.757,-13.757L2.751,-13.757C1.232,-13.757 0,-14.989 0,-16.508ZM2.751,-132.062L13.757,-132.062L13.757,-83.915L0,-83.915L0,-129.311C0,-130.831 1.232,-132.062 2.751,-132.062ZM41.269,-61.904L55.026,-61.904L55.026,-16.508C55.026,-14.989 53.794,-13.757 52.275,-13.757L41.269,-13.757L41.269,-61.904ZM41.269,-132.062L52.275,-132.062C53.794,-132.062 55.026,-130.831 55.026,-129.311L55.026,-83.915L41.269,-83.915L41.269,-132.062ZM96.295,115.554L49.523,115.554L49.523,60.528L88.042,60.528C89.561,60.528 90.793,59.296 90.793,57.777L90.793,41.269C90.793,39.749 89.561,38.518 88.042,38.518L49.523,38.518L49.523,8.254L82.539,8.254C88.617,8.254 93.544,3.326 93.544,-2.752L93.544,-143.068C93.544,-149.146 88.617,-154.073 82.539,-154.073L-27.513,-154.073C-33.591,-154.073 -38.518,-149.146 -38.518,-143.068L-38.518,-2.752C-38.518,3.326 -33.591,8.254 -27.513,8.254L5.503,8.254L5.503,38.518L-33.016,38.518C-34.535,38.518 -35.767,39.749 -35.767,41.269L-35.767,57.777C-35.767,59.296 -34.535,60.528 -33.016,60.528L5.503,60.528L5.503,115.554L-35.767,115.554C-37.286,115.554 -38.518,116.786 -38.518,118.305L-38.518,134.813C-38.518,136.332 -37.286,137.565 -35.767,137.565L96.295,137.565C97.815,137.565 99.047,136.332 99.047,134.813L99.047,118.305C99.047,116.786 97.815,115.554 96.295,115.554Z" style="fill:none;fill-rule:nonzero;stroke:black;stroke-width:0.5px;"/>
                        </g>
                        <g transform="matrix(1,0,0,1,587.2231,413.4396)">
                            <path d="M0,104.55L-15.156,104.55C-18.195,104.55 -20.658,102.086 -20.658,99.047L-20.658,46.773L-1.399,46.773C0.12,46.773 1.352,45.54 1.352,44.021L1.352,27.514C1.352,25.994 0.12,24.762 -1.399,24.762L-20.658,24.762L-20.658,-19.258C-20.658,-20.778 -21.89,-22.01 -23.41,-22.01L-56.425,-22.01C-57.945,-22.01 -59.177,-20.778 -59.177,-19.258L-59.177,115.555C-59.177,121.633 -54.25,126.56 -48.171,126.56L-8.828,126.56C-6.62,126.56 -4.626,125.24 -3.763,123.207L2.533,108.376C3.303,106.561 1.971,104.55 0,104.55Z" style="fill:none;fill-rule:nonzero;stroke:black;stroke-width:0.5px;"/>
                        </g>
                        <g transform="matrix(1,0,0,1,655.9519,413.4396)">
                            <path d="M0,104.55L-15.102,104.55C-18.141,104.55 -20.605,102.086 -20.605,99.047L-20.605,44.437L0.804,35.349C2.837,34.486 4.157,32.492 4.157,30.284L4.157,16.072C4.157,14.101 2.145,12.77 0.33,13.54L-20.605,22.426L-20.605,-19.258C-20.605,-20.778 -21.837,-22.01 -23.356,-22.01L-56.373,-22.01C-57.892,-22.01 -59.123,-20.779 -59.124,-19.259L-59.172,115.551C-59.174,121.631 -54.247,126.56 -48.167,126.56L-8.828,126.56C-6.62,126.56 -4.625,125.24 -3.763,123.207L2.533,108.376C3.303,106.561 1.971,104.55 0,104.55Z" style="fill:none;fill-rule:nonzero;stroke:black;stroke-width:0.5px;"/>
                        </g>
                        <g transform="matrix(1,0,0,1,577.5699,551.0049)">
                            <path d="M0,137.565L38.518,137.565C40.037,137.565 41.269,136.333 41.269,134.814L41.269,52.275L85.29,52.275C86.809,52.275 88.041,51.043 88.041,49.524L88.041,33.016C88.041,31.496 86.809,30.264 85.29,30.264L41.269,30.264L41.269,2.752C41.269,1.232 40.037,0 38.518,0L0,0C-1.52,0 -2.751,1.232 -2.751,2.752L-2.751,30.264L-46.772,30.264C-48.292,30.264 -49.523,31.496 -49.523,33.016L-49.523,49.524C-49.523,51.043 -48.292,52.275 -46.772,52.275L-2.751,52.275L-2.751,134.814C-2.751,136.333 -1.52,137.565 0,137.565Z" style="fill:none;fill-rule:nonzero;stroke:black;stroke-width:0.5px;"/>
                        </g>
                        <g transform="matrix(1,0,0,1,1301.1606,432.6989)">
                            <path d="M0,209.099L-8.254,209.099C-9.773,209.099 -11.005,207.867 -11.005,206.348L-11.005,2.752C-11.005,1.232 -9.773,0.001 -8.254,0.001L0,0.001C1.519,0.001 2.751,1.232 2.751,2.752L2.751,206.348C2.751,207.867 1.519,209.099 0,209.099ZM27.513,-22.01L-35.767,-22.01C-41.845,-22.01 -46.772,-17.083 -46.772,-11.005L-46.772,220.104C-46.772,226.182 -41.845,231.109 -35.767,231.109L27.513,231.109C33.591,231.109 38.518,226.182 38.518,220.104L38.518,-11.005C38.518,-17.083 33.591,-22.01 27.513,-22.01Z" style="fill:none;fill-rule:nonzero;stroke:black;stroke-width:0.5px;"/>
                        </g>
                        <g transform="matrix(1,0,0,1,1026.0311,432.6989)">
                            <path d="M0,209.099L-8.254,209.099C-9.773,209.099 -11.005,207.867 -11.005,206.348L-11.005,2.752C-11.005,1.232 -9.773,0.001 -8.254,0.001L0,0.001C1.519,0.001 2.751,1.232 2.751,2.752L2.751,206.348C2.751,207.867 1.519,209.099 0,209.099ZM27.513,-22.01L-35.767,-22.01C-41.845,-22.01 -46.772,-17.083 -46.772,-11.005L-46.772,220.104C-46.772,226.182 -41.845,231.109 -35.767,231.109L27.513,231.109C33.591,231.109 38.518,226.182 38.518,220.104L38.518,-11.005C38.518,-17.083 33.591,-22.01 27.513,-22.01Z" style="fill:none;fill-rule:nonzero;stroke:black;stroke-width:0.5px;"/>
                        </g>
                        <g transform="matrix(1,0,0,1,1391.9534,548.2541)">
                            <path d="M0,-16.508L0,-61.904L13.756,-61.904L13.756,-13.757L2.751,-13.757C1.232,-13.757 0,-14.989 0,-16.508ZM2.751,-132.062L13.756,-132.062L13.756,-83.915L0,-83.915L0,-129.311C0,-130.831 1.232,-132.062 2.751,-132.062ZM41.269,-61.904L55.026,-61.904L55.026,-16.508C55.026,-14.989 53.794,-13.757 52.275,-13.757L41.269,-13.757L41.269,-61.904ZM41.269,-132.062L52.275,-132.062C53.794,-132.062 55.026,-130.831 55.026,-129.311L55.026,-83.915L41.269,-83.915L41.269,-132.062ZM96.295,115.554L49.523,115.554L49.523,60.528L88.042,60.528C89.561,60.528 90.793,59.296 90.793,57.777L90.793,41.269C90.793,39.749 89.561,38.518 88.042,38.518L49.523,38.518L49.523,8.254L82.539,8.254C88.617,8.254 93.544,3.326 93.544,-2.752L93.544,-143.068C93.544,-149.146 88.617,-154.073 82.539,-154.073L-27.513,-154.073C-33.591,-154.073 -38.518,-149.146 -38.518,-143.068L-38.518,-2.752C-38.518,3.326 -33.591,8.254 -27.513,8.254L5.503,8.254L5.503,38.518L-33.016,38.518C-34.535,38.518 -35.767,39.749 -35.767,41.269L-35.767,57.777C-35.767,59.296 -34.535,60.528 -33.016,60.528L5.503,60.528L5.503,115.554L-35.767,115.554C-37.286,115.554 -38.518,116.786 -38.518,118.305L-38.518,134.813C-38.518,136.332 -37.286,137.565 -35.767,137.565L96.295,137.565C97.815,137.565 99.047,136.332 99.047,134.813L99.047,118.305C99.047,116.786 97.815,115.554 96.295,115.554Z" style="fill:none;fill-rule:nonzero;stroke:black;stroke-width:0.5px;"/>
                        </g>
                        <g transform="matrix(1,0,0,1,1137.4822,413.4396)">
                            <path d="M0,104.55L-15.156,104.55C-18.195,104.55 -20.658,102.086 -20.658,99.047L-20.658,46.773L-1.399,46.773C0.12,46.773 1.352,45.54 1.352,44.021L1.352,27.514C1.352,25.994 0.12,24.762 -1.399,24.762L-20.658,24.762L-20.658,-19.258C-20.658,-20.778 -21.89,-22.01 -23.41,-22.01L-56.425,-22.01C-57.945,-22.01 -59.177,-20.778 -59.177,-19.258L-59.177,115.555C-59.177,121.633 -54.25,126.56 -48.171,126.56L-8.828,126.56C-6.62,126.56 -4.626,125.24 -3.763,123.207L2.533,108.376C3.303,106.561 1.971,104.55 0,104.55Z" style="fill:none;fill-rule:nonzero;stroke:black;stroke-width:0.5px;"/>
                        </g>
                        <g transform="matrix(1,0,0,1,1206.2109,413.4396)">
                            <path d="M0,104.55L-15.102,104.55C-18.141,104.55 -20.605,102.086 -20.605,99.047L-20.605,44.437L0.804,35.349C2.837,34.486 4.157,32.492 4.157,30.284L4.157,16.072C4.157,14.101 2.145,12.77 0.33,13.54L-20.605,22.426L-20.605,-19.258C-20.605,-20.778 -21.837,-22.01 -23.356,-22.01L-56.373,-22.01C-57.892,-22.01 -59.123,-20.779 -59.124,-19.259L-59.172,115.551C-59.174,121.631 -54.246,126.56 -48.167,126.56L-8.828,126.56C-6.62,126.56 -4.625,125.24 -3.763,123.207L2.533,108.376C3.303,106.561 1.971,104.55 0,104.55Z" style="fill:none;fill-rule:nonzero;stroke:black;stroke-width:0.5px;"/>
                        </g>
                        <g transform="matrix(1,0,0,1,1127.829,551.0049)">
                            <path d="M0,137.565L38.518,137.565C40.037,137.565 41.269,136.333 41.269,134.814L41.269,52.275L85.29,52.275C86.809,52.275 88.042,51.043 88.042,49.524L88.042,33.016C88.042,31.496 86.809,30.264 85.29,30.264L41.269,30.264L41.269,2.752C41.269,1.232 40.037,0 38.518,0L0,0C-1.52,0 -2.751,1.232 -2.751,2.752L-2.751,30.264L-46.772,30.264C-48.292,30.264 -49.523,31.496 -49.523,33.016L-49.523,49.524C-49.523,51.043 -48.292,52.275 -46.772,52.275L-2.751,52.275L-2.751,134.814C-2.751,136.333 -1.52,137.565 0,137.565Z" style="fill:none;fill-rule:nonzero;stroke:black;stroke-width:0.5px;"/>
                        </g>
                    </g>
                </g>
            </g>
        </g>
    </g>
</svg>
