<?xml version="1.0" encoding="UTF-8" standalone="no"?>
<!DOCTYPE svg PUBLIC "-//W3C//DTD SVG 1.1//EN" "http://www.w3.org/Graphics/SVG/1.1/DTD/svg11.dtd">
<svg width="100%" height="100%" viewBox="0 0 3689 1644" version="1.1" xmlns="http://www.w3.org/2000/svg" xmlns:xlink="http://www.w3.org/1999/xlink" xml:space="preserve" xmlns:serif="http://www.serif.com/" style="fill-rule:evenodd;clip-rule:evenodd;stroke-linejoin:round;stroke-miterlimit:2;">
    <g transform="matrix(1,0,0,1,-2155.662313,-1428.322587)">
        <g transform="matrix(4.166667,0,0,4.166667,0,0)">
            <g transform="matrix(1,0,0,1,821.4634,689.8813)">
                <path d="M0,-300.14L40.334,-305.118C41.552,-305.268 42.651,-304.376 42.755,-303.153L68.752,2.745C68.861,4.027 67.85,5.128 66.563,5.128L37.354,5.128C36.158,5.128 35.149,4.235 35.003,3.048L-1.927,-297.672C-2.076,-298.886 -1.213,-299.99 0,-300.14" style="fill:rgb(255,85,136);fill-rule:nonzero;"/>
            </g>
            <g transform="matrix(1,0,0,1,765.6934,709.0554)">
                <path d="M0,-157.49L45.11,-163.057C46.366,-163.212 47.51,-162.319 47.665,-161.062L67.333,-0.903C67.477,0.271 66.643,1.339 65.47,1.484L32.157,5.595C31.128,5.722 30.175,5.035 29.971,4.019L-1.926,-154.82C-2.184,-156.101 -1.297,-157.33 0,-157.49" style="fill:rgb(255,85,136);"/>
            </g>
            <g transform="matrix(1,0,0,1,905.8604,715.1599)">
                <path d="M0,-165.963L44.413,-165.963C45.595,-165.963 46.553,-165.005 46.553,-163.823L46.539,-2.066C46.539,-0.925 45.614,0 44.473,0L12.334,0C11.193,0 10.245,-0.879 10.158,-2.017L-2.136,-163.659C-2.23,-164.902 -1.247,-165.963 0,-165.963" style="fill:rgb(255,85,136);"/>
            </g>
            <g transform="matrix(1,0,0,1,751.2476,529.1744)">
                <path d="M0,-59.206L19.183,-61.573C20.377,-61.721 21.468,-60.88 21.629,-59.688L29.417,-1.982C29.581,-0.769 28.722,0.344 27.507,0.494L12.277,2.374C11.133,2.515 10.074,1.751 9.848,0.621L-1.669,-56.893C-1.891,-58.003 -1.123,-59.067 0,-59.206" style="fill:rgb(255,85,136);"/>
            </g>
            <g transform="matrix(1,0,0,1,781.3002,523.5905)">
                <path d="M0,-55.158L7.109,2.734C7.253,3.905 8.319,4.737 9.49,4.593L27.223,2.404C28.384,2.261 29.209,1.204 29.067,0.044L21.942,-57.974C21.804,-59.097 20.781,-59.895 19.658,-59.757L1.877,-57.563C0.695,-57.417 -0.145,-56.34 0,-55.158" style="fill:rgb(255,85,136);"/>
            </g>
            <g transform="matrix(1,0,0,1,897.4461,527.0807)">
                <path d="M0,-58.154L4.501,0.367C4.58,1.398 5.439,2.193 6.473,2.193L22.153,2.193C23.296,2.193 24.216,1.253 24.191,0.11L22.908,-58.27C22.882,-59.425 21.939,-60.347 20.784,-60.347L2.031,-60.347C0.844,-60.347 -0.091,-59.337 0,-58.154" style="fill:rgb(255,85,136);"/>
            </g>
            <g transform="matrix(1,0,0,1,928.157,527.112)">
                <path d="M0,-58.216L1.28,0.031C1.306,1.215 2.274,2.162 3.458,2.162L20.127,2.162C21.315,2.162 22.278,1.199 22.277,0.011L22.248,-58.329C22.247,-59.461 21.329,-60.378 20.197,-60.378L2.115,-60.378C0.929,-60.378 -0.026,-59.403 0,-58.216" style="fill:rgb(255,85,136);"/>
            </g>
            <g transform="matrix(1,0,0,1,1145.7798,434.0727)">
                <path d="M0,219.941C-25.703,244.644 -55.698,259.746 -58.441,261.191C-59.97,261.997 -61.331,260.902 -61.542,259.866C-62.665,254.483 -67.374,220.815 -70.07,195.209C-70.206,193.928 -69.193,192.605 -67.604,192.824C-29.41,199.7 -1.82,215.743 -0.788,216.307C1.087,217.33 1,218.977 0,219.941M-131.819,299.043C-131.731,300.219 -130.819,301.176 -129.647,301.31C-47.171,310.734 11.029,281.296 37.404,265.047C63.24,249.13 98.85,210.594 47.522,181.234C-6.116,150.553 -54.614,147.88 -96.024,151.369C-97.381,151.483 -98.603,150.552 -98.782,149.203C-114.075,33.679 -108.835,-69.206 -107.78,-88.324C-107.702,-89.751 -109.103,-90.793 -110.447,-90.305C-122.319,-85.988 -167.934,-69.403 -177.633,-65.877C-178.682,-65.496 -179.298,-64.414 -179.089,-63.317C-175.444,-44.177 -145.382,116.262 -131.819,299.043" style="fill:rgb(255,85,136);"/>
            </g>
            <g transform="matrix(1,0,0,1,696.4885,433.2237)">
                <path d="M0,220.79C-25.703,245.493 -55.698,260.595 -58.441,262.04C-59.97,262.846 -61.331,261.751 -61.542,260.715C-62.665,255.332 -67.374,221.664 -70.07,196.058C-70.206,194.777 -69.193,193.454 -67.604,193.673C-29.41,200.549 -1.82,216.592 -0.788,217.156C1.087,218.179 1,219.826 0,220.79M-131.819,299.892C-131.731,301.068 -130.819,302.025 -129.647,302.159C-47.171,311.583 11.029,282.145 37.404,265.896C63.24,249.979 98.85,211.443 47.522,182.083C-6.116,151.402 -54.614,148.729 -96.024,152.218C-97.381,152.332 -98.603,151.401 -98.782,150.052C-114.075,34.528 -108.835,-69.206 -107.78,-88.323C-107.702,-89.751 -109.103,-90.793 -110.447,-90.304C-122.319,-85.988 -167.934,-69.403 -177.633,-65.877C-178.682,-65.495 -179.298,-64.413 -179.089,-63.317C-175.444,-44.177 -145.383,117.111 -131.819,299.892" style="fill:rgb(255,85,136);"/>
            </g>
            <g transform="matrix(1,0,0,1,1271.6909,689.8813)">
                <path d="M0,-300.14L40.334,-305.118C41.552,-305.268 42.651,-304.376 42.755,-303.153L68.752,2.745C68.86,4.027 67.849,5.128 66.563,5.128L37.354,5.128C36.158,5.128 35.149,4.235 35.003,3.048L-1.927,-297.672C-2.076,-298.886 -1.213,-299.99 0,-300.14" style="fill:rgb(255,85,136);fill-rule:nonzero;"/>
            </g>
            <g transform="matrix(1,0,0,1,1215.9209,709.0554)">
                <path d="M0,-157.49L45.11,-163.057C46.366,-163.212 47.51,-162.319 47.665,-161.062L67.333,-0.903C67.477,0.271 66.643,1.339 65.469,1.484L32.156,5.595C31.128,5.722 30.175,5.035 29.971,4.019L-1.926,-154.82C-2.184,-156.101 -1.297,-157.33 0,-157.49" style="fill:rgb(255,85,136);"/>
            </g>
            <g transform="matrix(1,0,0,1,1356.0879,715.1599)">
                <path d="M0,-165.963L44.413,-165.963C45.595,-165.963 46.553,-165.005 46.553,-163.823L46.539,-2.066C46.539,-0.925 45.614,0 44.473,0L12.334,0C11.193,0 10.245,-0.879 10.158,-2.017L-2.136,-163.659C-2.23,-164.902 -1.247,-165.963 0,-165.963" style="fill:rgb(255,85,136);"/>
            </g>
            <g transform="matrix(1,0,0,1,1201.4751,529.1744)">
                <path d="M0,-59.206L19.183,-61.573C20.377,-61.721 21.468,-60.88 21.629,-59.688L29.417,-1.982C29.581,-0.769 28.722,0.344 27.507,0.494L12.277,2.374C11.133,2.515 10.074,1.751 9.848,0.621L-1.669,-56.893C-1.891,-58.003 -1.123,-59.067 0,-59.206" style="fill:rgb(255,85,136);"/>
            </g>
            <g transform="matrix(1,0,0,1,1231.5276,523.5905)">
                <path d="M0,-55.158L7.109,2.734C7.253,3.905 8.319,4.737 9.49,4.593L27.223,2.404C28.384,2.261 29.209,1.204 29.067,0.044L21.942,-57.974C21.804,-59.097 20.781,-59.895 19.658,-59.757L1.877,-57.563C0.695,-57.417 -0.145,-56.34 0,-55.158" style="fill:rgb(255,85,136);"/>
            </g>
            <g transform="matrix(1,0,0,1,1347.6736,527.0807)">
                <path d="M0,-58.154L4.501,0.367C4.58,1.398 5.439,2.193 6.473,2.193L22.153,2.193C23.296,2.193 24.216,1.253 24.191,0.11L22.907,-58.27C22.882,-59.425 21.939,-60.347 20.784,-60.347L2.031,-60.347C0.844,-60.347 -0.091,-59.337 0,-58.154" style="fill:rgb(255,85,136);"/>
            </g>
            <g transform="matrix(1,0,0,1,1378.3844,527.112)">
                <path d="M0,-58.216L1.28,0.031C1.306,1.215 2.274,2.162 3.458,2.162L20.127,2.162C21.315,2.162 22.278,1.199 22.277,0.011L22.248,-58.329C22.247,-59.461 21.329,-60.378 20.197,-60.378L2.115,-60.378C0.929,-60.378 -0.026,-59.403 0,-58.216" style="fill:rgb(255,85,136);"/>
            </g>
        </g>
    </g>
</svg>
