<svg width="90" height="104" viewBox="15 8 90 104" fill="none" xmlns="http://www.w3.org/2000/svg">
<path fill-rule="evenodd" clip-rule="evenodd" d="M49.78 84.41C53.23 95.12 61.02 98 68.39 96.56C78.34 94.63 84.21 85.08 82.28 74.78C82.21 74.4 82.08 73.79 82.04 73.56C81.39 70.09 83.71 66.76 87.17 66.1C93.11 64.99 94.51 70.83 94.51 70.83C94.66 71.4 94.79 71.97 94.89 72.56C97.59 87.04 88.04 100.96 73.57 103.66C63 105.64 52.65 99.64 49.82 84.43" fill="#FF9913"/>
<path fill-rule="evenodd" clip-rule="evenodd" d="M102.36 81.0001C102.36 80.4101 102.34 79.8201 102.3 79.2401C102.3 79.2401 102 73.2501 95.95 73.2501C92.42 73.2501 89.54 76.1101 89.54 79.6401C89.54 79.8701 89.56 80.5001 89.56 80.8801C89.56 91.3601 81.06 99.8601 70.58 99.8601C61.08 99.8601 53.6 93.6301 51.78 84.5501C51.84 84.8301 50.18 79.6101 52.42 71.3201C52.7 70.3001 53.02 69.9801 52.78 69.5801C52.66 69.3801 52.14 69.9701 52.14 69.9701C47.55 77.4301 49.4 86.5801 49.32 86.0801C50.98 96.0701 57.93 104.04 68.48 106.89C68.96 107.01 69.44 107.12 69.91 107.22C69.37 107.24 68.83 107.26 68.29 107.26C52.7 107.26 40.28 95.2701 40.28 79.6801C40.28 69.5501 46.57 59.5301 54.44 55.5101C54.86 55.2901 55.97 55.0101 56.26 55.0801C57.62 55.3801 58.37 55.6301 58.57 57.3501C58.85 59.7601 57.76 61.1901 56.01 63.1601C55.34 63.9101 54.81 64.5301 54.81 64.5301C54.54 65.2701 55.87 65.2701 55.87 65.2701C55.87 65.2701 59.02 65.5301 62.11 63.9601C64.87 62.5501 67.22 60.4701 69.32 57.7301C71.85 54.4201 72.14 49.7201 71.98 47.2701C71.98 46.6901 72.36 46.2001 73.33 45.7901C75.96 44.6401 78 43.9301 79.04 43.6001C81.96 42.6601 85.29 41.8501 87.5 40.9001C86.46 40.7101 85.41 40.4701 84.61 40.1701C81.32 38.9101 80.68 37.3201 80.68 37.3201L81.2 37.3501C81.2 37.3501 84.27 38.9801 87.86 39.0201C92.55 39.0801 94.52 38.0101 95.02 37.7601C98.45 36.0401 100.46 33.1801 98.66 29.8101C97.61 27.8501 94.47 27.3401 93.07 27.3101C89.87 27.2301 89.72 27.5601 89.79 25.5901C89.79 25.7501 89.66 17.4801 80.26 14.3301C80.56 14.4101 68.57 8.77008 50.74 20.4201C47.41 22.5901 43.44 25.6901 39.9 29.3401C36.95 28.6901 32.64 27.2901 25.79 29.2901C17.72 31.5901 15.52 37.3101 15.52 37.3101C15.52 37.3101 14.52 40.2201 15.3 40.5001C16.87 41.0601 21.04 37.6701 24.68 38.9901C28.59 40.4001 27.21 43.9301 27.06 44.2301C23.77 50.2901 21.62 57.7801 21.47 65.4001C21.04 88.3101 39.36 109.56 65.75 110.07C71.42 110.18 77.25 109.16 82.24 107.23C83.28 106.82 84.23 106.41 85.09 105.98C95.18 102.18 102.36 92.4401 102.36 81.0201V81.0001ZM78.46 27.1201C78.46 27.6801 78.01 28.1301 77.45 28.1301C76.89 28.1301 76.44 27.6801 76.44 27.1201C76.44 26.5601 76.89 26.1001 77.45 26.1001C78.01 26.1001 78.46 26.5601 78.46 27.1201ZM76.05 24.4101C76.73 24.4101 77.36 24.5701 77.94 24.8301C75.84 24.8401 74.15 26.5001 74.15 28.5501C74.15 30.6001 75.86 32.2801 77.98 32.2801C78.48 32.2801 78.97 32.1801 79.42 32.0201C78.59 32.9301 77.39 33.5101 76.06 33.5101C73.55 33.5101 71.51 31.4701 71.51 28.9601C71.51 26.4501 73.55 24.4101 76.06 24.4101H76.05Z" fill="#2577E3"/>
</svg>
