<?xml version="1.0" encoding="UTF-8"?>
<svg width="141px" height="46px" viewBox="0 0 141 46" version="1.1" xmlns="http://www.w3.org/2000/svg" xmlns:xlink="http://www.w3.org/1999/xlink">
    <title>编组 38@3x</title>
    <g id="页面-1" stroke="none" stroke-width="1" fill="none" fill-rule="evenodd">
        <g id="画板" transform="translate(-247.000000, -135.000000)">
            <g id="编组-2" transform="translate(160.000000, 119.000000)">
                <g id="编组-76" transform="translate(87.000000, 16.000000)">
                    <g id="logo" transform="translate(0.000012, 0.000098)">
                        <path d="M18.2686593,14.6178535 C14.4475074,14.6128432 10.6889837,15.0545804 7.03149996,15.9313744 C8.11287927,10.7157025 12.746527,6.78641265 18.2774273,6.7935009 L18.3262772,6.7935009 C23.8342138,6.82357201 28.4340424,10.7557845 29.4991384,15.9580958 C25.8449948,15.0729513 22.0889762,14.6224462 18.2686593,14.6178535 M18.3638541,0.000444331963 C18.3379678,1.33906399e-05 18.3112465,1.33906399e-05 18.2853602,1.33906399e-05 C8.21517191,-0.0120812971 0.0125549476,8.17049466 1.4624874e-05,18.2406829 C-0.00623349602,23.2158628 1.98993426,27.7334397 5.22363416,31.0343605 L10.2334683,26.4416298 C9.21346455,25.439997 8.38134526,24.2483921 7.78971804,22.9273558 C11.1854161,22.0338609 14.6900871,21.5825208 18.2598914,21.5871135 C21.8296957,21.5912887 25.3322791,22.0509793 28.7250545,22.9528246 C28.1167264,24.3022523 27.2566332,25.5155683 26.2023928,26.5284742 L31.1633769,31.1775701 C34.469308,27.8753968 36.5197535,23.3160678 36.5260298,18.2853577 C36.5381244,8.24147322 28.3985531,0.0551395789 18.3638541,0.000444331963" id="Fill-1" fill="#FFCD32"></path>
                        <path d="M51.9826008,3.99557723 L51.9826008,29.3866975 L49.0440882,29.3866975 L49.0440882,14.5701308 L47.8825449,14.5701308 C47.6650165,14.5701308 47.4888226,14.7463247 47.4888226,14.9634356 L47.4888226,14.9634356 L47.4888226,26.241512 L44.5528152,26.241512 L44.5528152,5.4802818 L47.4888226,5.4802818 L47.4888226,11.8908988 L49.0440882,11.8908988 L49.0440882,3.99557723 L51.9826008,3.99557723 Z M73.6188297,8.76646409 L73.6188297,10.6536589 L65.0517169,10.6536589 L65.0517169,11.9383709 L73.6188297,11.9383709 L73.6188297,13.8259832 L65.0517169,13.8259832 L65.0517169,15.1123653 L71.0055659,15.1123653 C72.3345352,15.1123653 73.4121568,16.1899869 73.4121568,17.5193737 L73.4121568,17.5193737 L73.4121568,23.0991239 L65.0517169,23.0991239 L65.0517169,24.3905163 L73.6188297,24.3905163 L73.6188297,26.197547 L65.0517169,26.197547 L65.0517169,27.4989599 L73.6188297,27.4989599 L73.6188297,29.3869897 L53.4868036,29.3869897 L53.4868036,27.4989599 L62.0534988,27.4989599 L62.0534988,26.197547 L53.4868036,26.197547 L53.4868036,24.3905163 L62.0534988,24.3905163 L62.0534988,23.0991239 L56.0996498,23.0991239 C54.7702631,23.0991239 53.693059,22.0219198 53.693059,20.6925331 L53.693059,20.6925331 L53.693059,15.1123653 L62.0534988,15.1123653 L62.0534988,13.8259832 L53.4868036,13.8259832 L53.4868036,11.9383709 L62.0534988,11.9383709 L62.0534988,10.6536589 L53.4868036,10.6536589 L53.4868036,8.76646409 L73.6188297,8.76646409 Z M124.468834,17.2329543 L124.468834,19.1163914 L132.132014,19.1163914 C134.00209,19.1163914 135.523954,20.6386729 135.523954,22.5087493 L135.523954,22.5087493 L135.523954,27.8488425 L132.526153,27.8488425 L132.526153,22.5087493 C132.526153,22.2912208 132.349542,22.1146095 132.132014,22.1146095 L132.132014,22.1146095 L124.468834,22.1146095 L124.468834,29.3869897 L121.471033,29.3869897 L121.471033,22.1146095 L114.110139,22.1146095 C113.89261,22.1146095 113.715999,22.2912208 113.715999,22.5087493 L113.715999,22.5087493 L113.715999,27.8488425 L110.718198,27.8488425 L110.718198,22.5087493 C110.718198,20.6386729 112.239227,19.1163914 114.110139,19.1163914 L114.110139,19.1163914 L121.471033,19.1163914 L121.471033,17.2329543 L124.468834,17.2329543 Z M86.2781072,3.99553548 L85.6380476,5.17252709 L105.585947,5.17252709 L105.585947,8.17074517 L84.0072107,8.17074517 L80.3643402,14.8502456 C80.2215481,15.1124488 80.4111026,15.4322699 80.7100476,15.4322699 L80.7100476,15.4322699 L91.0482843,15.4322699 L91.0482843,11.7138281 L94.0460849,11.7138281 L94.0460849,15.4322699 L105.585947,15.4322699 L105.585947,18.4300704 L94.0460849,18.4300704 L94.0460849,21.9514423 L105.585947,21.9514423 L105.585947,24.9496604 L94.0460849,24.9496604 L94.0460849,29.3870732 L91.0482843,29.3870732 L91.0482843,24.9496604 L76.745686,24.9496604 L76.745686,21.9514423 L91.0482843,21.9514423 L91.0482843,18.4300704 L80.7588975,18.4300704 C79.5167727,18.4300704 78.399069,17.7791552 77.7844782,16.6936007 C77.1865881,15.6360201 77.2458761,14.3266743 77.8266478,13.2590732 L77.8266478,13.2590732 L80.5948118,8.17074517 L76.745686,8.17074517 L76.745686,5.17252709 L82.2252312,5.17252709 L82.8657083,3.99553548 L86.2781072,3.99553548 Z M71.2999182,20.0052935 L65.0517169,20.0052935 L65.0517169,21.2808201 L71.2999182,21.2808201 L71.2999182,20.0052935 Z M62.0534988,20.0052935 L55.8052975,20.0052935 L55.8052975,20.8870978 C55.8052975,21.1046263 55.9814914,21.2808201 56.1986023,21.2808201 L56.1986023,21.2808201 L62.0534988,21.2808201 L62.0534988,20.0052935 Z M116.298533,9.94788142 L116.307868,10.5008358 C116.326402,11.051024 116.372121,11.5941666 116.441325,12.1302635 L116.441325,12.1302635 L129.866294,12.1302635 C129.958149,11.4154676 130.009087,10.6881461 130.009087,9.94829895 L130.009087,9.94829895 L133.040289,9.94788142 L133.032219,10.4996028 C133.016229,11.0489103 132.97693,11.5922878 132.918373,12.1302635 L132.918373,12.1302635 L133.95132,12.1302635 C135.822649,12.1302635 137.345765,13.6529625 137.345765,15.524709 L137.345765,15.524709 L137.345765,18.4394229 L134.347964,18.4394229 L134.347964,15.524709 C134.347964,15.305928 134.169683,15.1284816 133.95132,15.1284816 L133.95132,15.1284816 L111.919991,15.1284816 C111.701627,15.1284816 111.523763,15.305928 111.523763,15.524709 L111.523763,15.524709 L111.523763,18.4394229 L108.525963,18.4394229 L108.525963,15.524709 C108.525963,13.6529625 110.048662,12.1302635 111.919991,12.1302635 L111.919991,12.1302635 L113.388412,12.1302635 C113.310753,11.4129625 113.266496,10.6860585 113.266496,9.94829895 L113.266496,9.94829895 L116.298533,9.94788142 Z M70.9066135,16.9315042 L65.0517169,16.9315042 L65.0517169,18.1865722 L71.2999182,18.1865722 L71.2999182,17.3248089 C71.2999182,17.1072805 71.1237244,16.9315042 70.9066135,16.9315042 L70.9066135,16.9315042 Z M62.0534988,16.9315042 L55.8052975,16.9315042 L55.8052975,18.1865722 L62.0534988,18.1865722 L62.0534988,16.9315042 Z M124.469001,3.99566073 L124.469001,5.17223483 L137.390022,5.17223483 L137.390022,8.17045291 L108.549761,8.17045291 L108.549761,5.17223483 L121.470783,5.17223483 L121.470783,3.99566073 L124.469001,3.99566073 Z M59.1755268,3.99578599 C59.1755268,4.41956977 59.1934802,4.83834331 59.2243768,5.25419419 L59.2243768,5.25419419 L67.9138232,5.25419419 C67.9447197,4.83834331 67.9626731,4.41956977 67.9626731,3.99578599 L67.9626731,3.99578599 L70.9608912,3.99578599 C70.9608912,4.41873473 70.9446079,4.83792579 70.9178865,5.25419419 L70.9178865,5.25419419 L73.6188297,5.25419419 L73.6188297,7.28000593 L53.4868036,7.28000593 L53.4868036,5.25419419 L56.191922,5.25419419 C56.1656181,4.83792579 56.1497523,4.41873473 56.1497523,3.99578599 L56.1497523,3.99578599 Z" id="形状结合" fill="#1F2129"></path>
                    </g>
                    <text id="www.dongchedi.com" font-family="PingFangSC-Medium, PingFang SC" font-size="10" font-weight="400" letter-spacing="2.5" fill="#1F2129">
                        <tspan x="0" y="43">www.dongchedi.com</tspan>
                    </text>
                </g>
            </g>
        </g>
    </g>
</svg>