<?xml version="1.0" encoding="UTF-8" standalone="no"?>
<!-- Created with Inkscape (http://www.inkscape.org/) -->

<svg
   width="80.850494mm"
   height="12.499604mm"
   viewBox="0 0 80.850494 12.499604"
   version="1.1"
   id="svg832"
   inkscape:version="1.1.2 (b8e25be833, 2022-02-05)"
   sodipodi:docname="drawing.svg"
   xmlns:inkscape="http://www.inkscape.org/namespaces/inkscape"
   xmlns:sodipodi="http://sodipodi.sourceforge.net/DTD/sodipodi-0.dtd"
   xmlns="http://www.w3.org/2000/svg"
   xmlns:svg="http://www.w3.org/2000/svg">
  <sodipodi:namedview
     id="namedview834"
     pagecolor="#ffffff"
     bordercolor="#666666"
     borderopacity="1.0"
     inkscape:pageshadow="2"
     inkscape:pageopacity="0.0"
     inkscape:pagecheckerboard="0"
     inkscape:document-units="mm"
     showgrid="false"
     fit-margin-top="0"
     fit-margin-left="0"
     fit-margin-right="0"
     fit-margin-bottom="0"
     inkscape:zoom="0.53540264"
     inkscape:cx="370.74901"
     inkscape:cy="187.7092"
     inkscape:window-width="1440"
     inkscape:window-height="830"
     inkscape:window-x="-6"
     inkscape:window-y="-6"
     inkscape:window-maximized="1"
     inkscape:current-layer="layer1" />
  <defs
     id="defs829" />
  <g
     inkscape:label="Layer 1"
     inkscape:groupmode="layer"
     id="layer1"
     transform="translate(-7.0156838,-99.009765)">
    <g
       id="g865"
       transform="matrix(0.35277777,0,0,-0.35277777,-210.56758,338.08648)">
      <g
         id="g665"
         transform="translate(107.75247,181.8323)">
        <g
           id="g43"
           transform="translate(737.9335,492.9222)">
          <path
             d="m 0,0 c 0,0 -0.001,0 -0.001,0 h -3.758 c -0.196,0.015 -0.233,0.142 -0.237,0.216 v 0.031 c 10e-4,0.012 0.003,0.02 0.003,0.02 L -3.996,0.265 v 2.257 0.001 c 0,0.147 -0.12,0.267 -0.269,0.267 0,0 0,0 -0.001,0 h -4.703 c -0.148,0 -0.268,-0.12 -0.268,-0.268 v -2.255 0 c 0,0 0,-0.001 0,-0.002 V 0.196 C -9.246,0.122 -9.291,0.014 -9.468,0 h -12.229 c -0.196,0.015 -0.233,0.142 -0.236,0.216 v 0.031 c 0,0.012 0.002,0.02 0.002,0.02 l -0.002,-0.002 v 2.257 c 0,0.148 -0.12,0.268 -0.269,0.268 -10e-4,0 -10e-4,0 -0.002,0 h -4.702 c 0,0 0,0 0,0 -0.149,0 -0.269,-0.12 -0.269,-0.268 v -2.255 0 c 0,0 0,-0.001 0,-0.002 V 0.196 C -27.184,0.122 -27.229,0.014 -27.406,0 h -3.749 c -0.242,0 -0.241,-0.22 -0.241,-0.22 v -3.528 c 0,-10e-4 0,-10e-4 0,-10e-4 0,-0.148 0.12,-0.268 0.268,-0.268 h 3.688 c 0.206,-0.002 0.256,-0.12 0.265,-0.199 v -0.068 c 0,-0.001 0,-0.002 0,-0.002 v 0 -2.733 c 0,-0.148 0.12,-0.268 0.269,-0.268 h 4.702 v 0 c 0.001,0 0.002,0 0.002,0 0.149,0 0.269,0.12 0.269,0.268 v 2.735 l 0.002,-0.002 c 0,0 -0.002,0.007 -0.002,0.02 v 0.031 c 0.003,0.078 0.042,0.216 0.267,0.218 h 12.163 c 0.207,-0.002 0.256,-0.12 0.266,-0.199 v -0.068 c 0,-0.001 0,-0.002 0,-0.002 v 0 -2.733 c 0,-0.148 0.12,-0.268 0.268,-0.268 h 4.703 v 0 c 0.001,0 0.001,0 0.002,0 0.148,0 0.268,0.12 0.268,0.268 v 2.735 l 0.002,-0.002 c 0,0 -10e-4,0.007 -0.002,0.02 v 0.031 c 0.004,0.078 0.043,0.216 0.268,0.218 H 0 c 0.148,0 0.268,0.12 0.268,0.268 v 3.481 C 0.268,-0.12 0.148,0 0,0"
             style="fill:#00dc5a;fill-opacity:1;fill-rule:nonzero;stroke:none"
             id="path45" />
        </g>
        <g
           id="g47"
           transform="translate(636.4314,491.2043)">
          <path
             d="m 0,0 c 0,0 0.003,-0.385 0.443,-0.385 2.627,0 16.529,0.212 19.471,0.212 2.269,0 6.453,0.217 8.684,0.595 0.137,0.023 0.347,0.161 0.296,0.523 C 28.843,1.307 28.404,3.719 28.32,3.976 28.236,4.234 28.074,4.309 27.828,4.278 25.08,3.866 21.833,3.711 19.053,3.711 19.053,3.711 0.917,3.499 0.451,3.499 -0.014,3.499 0,3.077 0,3.077 Z"
             style="fill:#00dc5a;fill-opacity:1;fill-rule:nonzero;stroke:none"
             id="path49" />
        </g>
        <g
           id="g51"
           transform="translate(664.8419,487.3427)">
          <path
             d="m 0,0 h -2.695 c 0,0 -0.103,0.001 -0.103,0.11 V 0.109 c -0.005,1.193 -0.008,1.944 -0.008,1.944 0,0 0.018,0.265 -0.273,0.265 h -4.413 c -0.276,0 -0.286,-0.283 -0.286,-0.283 0,0 0,-0.747 0,-1.925 C -7.778,0.001 -7.88,0 -7.88,0 h -3.837 c 0,0 -0.102,0.001 -0.102,0.11 -0.005,1.193 0,1.943 0,1.943 0,0 0.01,0.265 -0.281,0.265 h -4.606 c -0.276,0 -0.285,-0.283 -0.285,-0.283 0,0 0,-0.747 0,-1.925 v 0 C -16.991,0.001 -17.094,0 -17.094,0 h -3.964 c 0,0 -0.102,0.001 -0.102,0.11 h -0.001 c -0.004,1.193 -0.008,1.943 -0.008,1.943 0,0 0.019,0.265 -0.272,0.265 h -4.414 c -0.294,0 -0.285,-0.283 -0.285,-0.283 0,0 0,-0.747 0,-1.925 v 0 C -26.14,0.001 -26.242,0 -26.242,0 h -3.995 c -0.279,0 -0.432,-0.164 -0.432,-0.402 0,-1.146 0.001,-3.975 0,-4.625 0,0 -0.006,-0.305 0.32,-0.305 h 4.647 c 0.335,0 0.316,0.282 0.316,0.282 0,0.351 10e-4,0.744 10e-4,1.08 0,0 0.002,0.247 0.264,0.247 h 13.118 v 0.005 h 8.352 c 0.28,0 0.338,-0.135 0.338,-0.352 v -1.171 c 0,0 0,-0.296 0.273,-0.296 h 4.733 c 0.258,0 0.273,0.272 0.273,0.272 -0.002,0.75 0,2.049 0,2.696 C 1.966,-1.114 1.604,0 0,0"
             style="fill:#00dc5a;fill-opacity:1;fill-rule:nonzero;stroke:none"
             id="path53" />
        </g>
        <g
           id="g55"
           transform="translate(665.0345,480.8531)">
          <path
             d="m 0,0 c 0,0 -0.001,0 -0.001,0 h -18.628 c -0.114,0 -0.096,0.093 -0.096,0.093 0.051,0.375 0.085,0.654 0.12,1.046 0.017,0.192 -0.135,0.3 -0.267,0.3 h -4.912 c -0.097,0 -0.16,-0.042 -0.209,-0.099 -0.056,-0.064 -0.059,-0.153 -0.059,-0.153 -0.028,-0.419 -0.061,-0.725 -0.113,-1.145 0,-0.001 -0.001,-0.002 -0.001,-0.004 v 0 c 0,0.005 0.001,0.009 0.002,0.013 -0.004,-0.033 -0.04,-0.053 -0.069,-0.051 h -5.583 v 0 c -0.001,0 -0.001,0 -0.002,0 -0.148,0 -0.269,-0.12 -0.269,-0.268 v -3.288 c 0,-0.148 0.121,-0.268 0.269,-0.268 h 4.769 c 0,0 0.081,0 0.064,-0.066 -1.253,-4.315 -3.647,-8.668 -6.909,-12.95 -0.178,-0.282 0.035,-0.406 0.035,-0.406 0.078,-0.06 3.576,-2.456 3.729,-2.552 0.175,-0.109 0.341,-0.023 0.405,0.059 2.829,3.644 4.855,7.235 6.393,10.762 v 0 c 0,0 0.044,0.12 0.236,0.12 h 13.544 c 0.501,0 0.259,-0.413 0.212,-0.532 -0.465,-1.166 -1.552,-2.767 -4.001,-4.126 l -0.2,-0.114 c -0.049,-0.026 -0.096,-0.049 -0.145,-0.074 -1.908,0.792 -3.434,2.327 -4.095,3.205 -0.042,0.051 -0.157,0.125 -0.384,0.125 h -4.934 c -0.617,0 -0.203,-0.661 -0.203,-0.661 v 0.001 c 0.998,-1.525 2.183,-2.918 3.95,-4.25 -2.061,-0.538 -4.489,-0.778 -6.932,-0.801 -0.206,-0.002 -0.318,-0.142 -0.318,-0.285 v -3.732 c 0,-0.275 0.256,-0.314 0.384,-0.316 3.778,-0.048 8.412,0.704 12.456,2.046 3.354,-1.242 7.655,-2.038 11.702,-2.038 0.154,0 0.282,0.071 0.282,0.263 v 3.791 c 0,0.175 -0.08,0.274 -0.279,0.281 -2.609,0.094 -4.266,0.339 -5.888,0.815 1.146,1.007 2.397,2.323 3.035,3.341 0.959,1.529 1.428,2.895 1.622,3.947 0.101,0.55 0.106,2.499 -1.932,2.499 h -16.645 c -0.137,0 -0.101,0.099 -0.101,0.099 l -10e-4,-10e-4 c 0.155,0.484 0.299,0.968 0.43,1.45 v 0 c 0,0 0.028,0.1 0.112,0.1 H 0.006 v 10e-4 c 0.145,0.003 0.262,0.121 0.262,0.267 v 3.288 C 0.268,-0.12 0.148,0 0,0"
             style="fill:#00dc5a;fill-opacity:1;fill-rule:nonzero;stroke:none"
             id="path57" />
        </g>
        <g
           id="g59"
           transform="translate(672.0852,489.2584)">
          <path
             d="M 0,0 H 9.633 C 9.671,-0.001 9.748,-0.012 9.694,-0.082 7.511,-2.319 3.934,-3.156 0.942,-3.616 0.636,-3.663 0.445,-3.712 0.445,-4.101 v -3.066 c 0,-0.377 0.292,-0.319 0.437,-0.303 3.515,0.398 7.544,1.539 9.894,3.134 1.62,1.099 2.865,2.08 3.883,3.44 2.792,-3.934 7.229,-5.951 14.123,-6.571 0.131,-0.012 0.397,0.037 0.397,0.288 v 3.176 c 0,0.36 -0.201,0.352 -0.354,0.369 -3.735,0.404 -7.443,1.617 -9.341,3.551 -0.055,0.071 0.022,0.082 0.061,0.083 h 9.656 c 0,0 0.263,0.006 0.263,0.25 v 3.543 c 0,0.265 -0.316,0.252 -0.316,0.252 H 17.623 c -0.158,0.013 -0.188,0.11 -0.191,0.167 v 0.035 c 0,0.003 0,0.007 0,0.007 V 4.253 6.365 c 0,0.243 -0.221,0.241 -0.221,0.241 l -5.21,0.001 c 0,0 -0.243,0.013 -0.243,-0.273 V 4.253 4.254 c 0,0 0,-0.002 0,-0.003 V 4.207 C 11.753,4.15 11.721,4.058 11.567,4.045 H 11.46 -0.032 c -0.243,0 -0.242,-0.22 -0.242,-0.22 V 0.242 C -0.274,0.242 -0.287,0 0,0"
             style="fill:#00dc5a;fill-opacity:1;fill-rule:nonzero;stroke:none"
             id="path61" />
        </g>
        <g
           id="g63"
           transform="translate(687.5739,471.0803)">
          <path
             d="m 0,0 v -4.707 -0.13 0 c 0,-0.239 -0.195,-0.434 -0.435,-0.434 h -1.337 -7.906 c -0.24,0 -0.435,0.195 -0.435,0.434 v 0 0.13 4.707 0.13 0 c 0,0.24 0.195,0.434 0.435,0.434 h 7.906 0.902 0.435 C -0.195,0.564 0,0.37 0,0.13 v 0 z M 2.016,4.014 H -0.87 -1.772 -12.129 c -1.581,0 -2.862,-1.278 -2.862,-2.854 V 0 -4.707 -5.866 c 0,-1.577 1.281,-2.855 2.862,-2.855 h 10.357 1.496 2.292 c 1.58,0 2.862,1.278 2.862,2.855 V -4.707 0 1.16 c 0,1.576 -1.282,2.854 -2.862,2.854"
             style="fill:#00dc5a;fill-opacity:1;fill-rule:nonzero;stroke:none"
             id="path65" />
        </g>
        <g
           id="g67"
           transform="translate(702.7127,481.1517)">
          <path
             d="m 0,0 c 0,0 -0.001,0 -0.001,0 h -32.063 c 0,0 0,0 -10e-4,0 -0.148,0 -0.268,-0.12 -0.268,-0.268 v -3.514 c 0,-0.148 0.12,-0.268 0.268,-0.268 h 24.627 0.03 c 0.076,0 0.267,-0.052 0.267,-0.277 -0.011,-2.479 0,-7.356 0,-8.407 0,-2.484 -0.213,-3.351 -1.89,-4.175 -0.18,-0.088 -0.332,-0.269 -0.202,-0.459 0.131,-0.19 2.401,-3.169 2.401,-3.169 0,0 0.23,-0.349 0.744,-0.072 3.222,1.637 3.924,3.587 4.096,7.265 0.047,1.018 0.015,6.427 0.003,9.021 0,0.091 0.061,0.273 0.278,0.273 H -1.695 0 c 0.148,0 0.268,0.12 0.268,0.268 v 3.514 C 0.268,-0.12 0.148,0 0,0"
             style="fill:#00dc5a;fill-opacity:1;fill-rule:nonzero;stroke:none"
             id="path69" />
        </g>
        <g
           id="g71"
           transform="translate(736.4681,464.7455)">
          <path
             d="m 0,0 h -3.805 -17.731 c -0.336,0 -0.639,0.235 -0.688,0.565 -0.045,0.3 0.108,0.569 0.349,0.696 l 16.951,8.466 2.426,1.229 c 0.309,0.166 0.838,0.483 1.283,0.911 0.355,0.34 0.675,0.774 0.892,1.303 0.191,0.488 0.295,1.023 0.295,1.578 0,2.153 -1.678,3.905 -3.816,3.981 -0.046,0.001 -0.09,0.003 -0.132,0.003 -0.004,0 -0.007,0 -0.011,0 -10e-4,0 -0.002,0 -0.004,0 -10e-4,0 -0.003,0 -0.005,0 h -23.723 c -0.148,0 -0.267,-0.119 -0.268,-0.266 l -0.002,-0.002 v -3.737 c 0,-0.146 0.117,-0.264 0.263,-0.267 V 14.459 H -6.8 c 0.197,0 0.381,-0.161 0.382,-0.358 0,-0.141 -0.083,-0.251 -0.202,-0.321 l -0.157,-0.085 c 0,0 0,0 0,0 0,0 -0.03,-0.017 -0.084,-0.045 L -7.209,13.464 C -9.83,12.068 -24.891,4.752 -26.307,3.756 -26.472,3.655 -26.627,3.55 -26.777,3.443 -27.075,3.241 -27.346,3.002 -27.584,2.734 -27.585,2.733 -27.586,2.732 -27.587,2.73 -27.635,2.676 -27.681,2.621 -27.726,2.564 -27.731,2.558 -27.736,2.552 -27.74,2.546 -27.782,2.493 -27.822,2.44 -27.861,2.385 -27.867,2.377 -27.873,2.369 -27.878,2.361 -27.917,2.307 -27.953,2.251 -27.989,2.196 -27.994,2.188 -27.999,2.18 -28.004,2.172 -28.042,2.112 -28.078,2.051 -28.113,1.989 -28.115,1.985 -28.117,1.982 -28.119,1.978 -28.193,1.844 -28.26,1.706 -28.32,1.563 -28.321,1.561 -28.322,1.559 -28.323,1.557 -28.35,1.491 -28.376,1.425 -28.4,1.358 -28.406,1.339 -28.412,1.321 -28.419,1.302 -28.436,1.251 -28.453,1.199 -28.469,1.147 -28.476,1.122 -28.483,1.098 -28.49,1.073 -28.503,1.026 -28.516,0.979 -28.527,0.931 -28.534,0.903 -28.54,0.875 -28.547,0.848 -28.557,0.802 -28.566,0.755 -28.575,0.709 -28.58,0.68 -28.586,0.651 -28.59,0.622 -28.598,0.575 -28.605,0.528 -28.611,0.48 -28.615,0.451 -28.619,0.422 -28.622,0.393 -28.627,0.342 -28.631,0.291 -28.635,0.24 -28.637,0.214 -28.64,0.188 -28.641,0.163 c -0.004,-0.075 -0.006,-0.151 -0.007,-0.227 0,-0.002 0,-0.004 0,-0.006 0,-0.072 0.002,-0.144 0.006,-0.216 0.001,-0.02 0.003,-0.039 0.004,-0.06 0.003,-0.05 0.007,-0.101 0.012,-0.152 0.002,-0.026 0.006,-0.051 0.009,-0.077 0.006,-0.044 0.011,-0.088 0.017,-0.131 0.004,-0.029 0.01,-0.057 0.015,-0.085 0.007,-0.041 0.013,-0.081 0.021,-0.121 0.006,-0.029 0.013,-0.058 0.02,-0.087 0.009,-0.039 0.017,-0.077 0.027,-0.115 0.007,-0.03 0.016,-0.059 0.024,-0.089 0.01,-0.036 0.02,-0.073 0.031,-0.109 0.009,-0.03 0.019,-0.059 0.029,-0.089 0.012,-0.035 0.024,-0.071 0.036,-0.106 0.011,-0.029 0.022,-0.058 0.033,-0.087 0.014,-0.035 0.027,-0.069 0.041,-0.103 0.012,-0.029 0.025,-0.058 0.038,-0.086 0.015,-0.033 0.029,-0.066 0.045,-0.099 0.013,-0.029 0.028,-0.057 0.042,-0.085 0.016,-0.032 0.032,-0.064 0.049,-0.096 0.015,-0.028 0.031,-0.055 0.046,-0.083 0.018,-0.031 0.035,-0.062 0.053,-0.092 0.017,-0.028 0.034,-0.055 0.051,-0.082 0.018,-0.029 0.037,-0.059 0.057,-0.089 0.017,-0.026 0.036,-0.052 0.054,-0.079 0.02,-0.028 0.04,-0.057 0.061,-0.085 0.019,-0.026 0.038,-0.052 0.058,-0.077 0.021,-0.027 0.043,-0.055 0.064,-0.082 0.021,-0.025 0.041,-0.05 0.062,-0.074 0.023,-0.027 0.045,-0.053 0.068,-0.078 0.022,-0.025 0.044,-0.049 0.066,-0.073 0.023,-0.025 0.047,-0.049 0.071,-0.074 0.023,-0.023 0.046,-0.046 0.069,-0.069 0.025,-0.024 0.049,-0.047 0.074,-0.071 0.024,-0.022 0.049,-0.044 0.073,-0.066 0.026,-0.023 0.051,-0.045 0.077,-0.067 0.025,-0.021 0.051,-0.042 0.076,-0.063 0.027,-0.021 0.054,-0.042 0.081,-0.063 0.026,-0.02 0.052,-0.04 0.078,-0.059 0.028,-0.02 0.056,-0.04 0.084,-0.059 0.027,-0.019 0.054,-0.038 0.082,-0.056 0.028,-0.019 0.056,-0.037 0.085,-0.055 0.028,-0.018 0.057,-0.036 0.086,-0.053 0.028,-0.017 0.058,-0.033 0.087,-0.05 0.03,-0.017 0.059,-0.033 0.089,-0.049 0.029,-0.016 0.06,-0.031 0.09,-0.046 0.03,-0.015 0.06,-0.031 0.091,-0.045 0.03,-0.015 0.061,-0.028 0.092,-0.042 0.031,-0.014 0.062,-0.028 0.093,-0.041 0.032,-0.013 0.063,-0.025 0.095,-0.037 0.032,-0.012 0.064,-0.025 0.096,-0.037 0.032,-0.011 0.064,-0.021 0.096,-0.032 0.033,-0.011 0.066,-0.022 0.099,-0.032 0.032,-0.01 0.065,-0.019 0.098,-0.028 0.034,-0.01 0.067,-0.02 0.101,-0.028 0.033,-0.008 0.067,-0.016 0.1,-0.023 0.034,-0.008 0.068,-0.016 0.102,-0.023 0.034,-0.007 0.069,-0.012 0.103,-0.018 0.034,-0.007 0.069,-0.013 0.103,-0.019 0.035,-0.005 0.07,-0.008 0.105,-0.013 0.035,-0.004 0.069,-0.009 0.105,-0.013 0.069,-0.007 0.139,-0.012 0.209,-0.016 0.073,-0.004 0.147,-0.006 0.222,-0.006 H -0.347 0 c 0.148,0 0.269,0.12 0.269,0.268 v 3.428 0.346 C 0.269,-0.12 0.148,0 0,0"
             style="fill:#00dc5a;fill-opacity:1;fill-rule:nonzero;stroke:none"
             id="path73" />
        </g>
        <g
           id="g75"
           transform="translate(565.7243,460.7513)">
          <path
             d="m 0,0 c 0,-0.162 0.143,-0.294 0.32,-0.294 h 7.617 c 0.176,0 0.319,0.132 0.319,0.294 v 34.034 c 0,0.162 -0.143,0.294 -0.319,0.294 H 0.32 C 0.143,34.328 0,34.196 0,34.034 Z"
             style="fill:#00dc5a;fill-opacity:1;fill-rule:nonzero;stroke:none"
             id="path77" />
        </g>
        <g
           id="g79"
           transform="translate(509.7278,460.7513)">
          <path
             d="m 0,0 c 0,-0.162 0.143,-0.294 0.32,-0.294 h 7.617 c 0.176,0 0.319,0.132 0.319,0.294 v 21.426 c 0,0.162 -0.143,0.293 -0.319,0.293 H 0.32 C 0.143,21.719 0,21.588 0,21.426 Z"
             style="fill:#00dc5a;fill-opacity:1;fill-rule:nonzero;stroke:none"
             id="path81" />
        </g>
        <g
           id="g83"
           transform="translate(542.9816,467.9172)">
          <path
             d="m 0,0 c -5.518,-0.995 -10.835,2.762 -11.853,8.375 -1.018,5.614 2.643,10.991 8.161,11.986 C 1.825,21.356 7.142,17.599 8.16,11.986 9.178,6.372 5.518,0.995 0,0 M 17.716,-1.611 13.948,1.406 C 13.87,1.468 13.82,1.553 13.8,1.645 13.781,1.737 13.792,1.835 13.839,1.923 15.641,5.3 16.361,9.28 15.626,13.332 13.885,22.93 4.652,29.298 -4.997,27.558 -14.647,25.817 -21.058,16.626 -19.318,7.029 c 1.74,-9.598 10.974,-15.967 20.623,-14.226 2.683,0.484 5.114,1.545 7.191,3.029 0.153,0.11 0.36,0.107 0.507,-0.011 l 4.042,-3.236 c 0.137,-0.11 0.34,-0.085 0.453,0.056 l 4.261,5.295 c 0.114,0.141 0.094,0.344 -0.043,0.453"
             style="fill:#00dc5a;fill-opacity:1;fill-rule:nonzero;stroke:none"
             id="path85" />
        </g>
        <g
           id="g87"
           transform="translate(622.8592,495.0793)">
          <path
             d="m 0,0 h -7.617 c -0.176,0 -0.32,-0.132 -0.32,-0.294 v -34.034 c 0,-0.162 0.144,-0.294 0.32,-0.294 H 0 c 0.177,0 0.32,0.132 0.32,0.294 V -0.294 C 0.32,-0.132 0.177,0 0,0"
             style="fill:#00dc5a;fill-opacity:1;fill-rule:nonzero;stroke:none"
             id="path89" />
        </g>
        <g
           id="g91"
           transform="translate(513.856,495.7579)">
          <path
             d="m 0,0 c -2.671,0 -4.837,-2.16 -4.837,-4.824 0,-2.664 2.166,-4.824 4.837,-4.824 2.671,0 4.837,2.16 4.837,4.824 C 4.837,-2.16 2.671,0 0,0"
             style="fill:#00dc5a;fill-opacity:1;fill-rule:nonzero;stroke:none"
             id="path93" />
        </g>
        <g
           id="g95"
           transform="translate(610.8904,495.0793)">
          <path
             d="m 0,0 h -8.116 c -0.14,0 -0.269,-0.071 -0.335,-0.184 l -7.541,-13.375 c 0,0 -0.054,-0.098 -0.129,-0.1 -0.075,0.002 -0.129,0.1 -0.129,0.1 l -7.542,13.375 C -23.858,-0.071 -23.986,0 -24.126,0 h -8.116 c -0.217,0 -0.467,-0.223 -0.288,-0.556 L -20.467,-20.8 c 0.115,-0.195 0.176,-0.418 0.176,-0.645 v -12.824 c 0,-0.195 0.158,-0.353 0.353,-0.353 h 3.817 3.816 c 0.196,0 0.354,0.158 0.354,0.353 v 12.824 c 0,0.227 0.061,0.45 0.176,0.645 L 0.288,-0.556 C 0.466,-0.223 0.217,0 0,0"
             style="fill:#00dc5a;fill-opacity:1;fill-rule:nonzero;stroke:none"
             id="path97" />
        </g>
      </g>
    </g>
  </g>
</svg>
