<svg xmlns="http://www.w3.org/2000/svg" viewBox="0 0 32 26" fill="none">
  <path d="M16.59,13.32l.08-.08c.05-.05.11-.11.16-.16l.11-.11.32-.32.45-.43.38-.38.36-.35.37-.37.34-.34.48-.47c.09-.09.18-.18.28-.26.17-.16.35-.31.53-.46.4-.32.83-.61,1.27-.88.25-.15.52-.29.78-.42.39-.19.8-.36,1.21-.49.07-.02.15-.05.23-.07-.66-2.59-1.87-5.02-3.54-7.11C20.06.23,19.57,0,19.05,0H5.37c-.14,0-.26.12-.26.26,0,.08.04.16.1.21,4.67,3.42,8.54,7.82,11.34,12.89l.03-.04h0Z" fill="#00D6B9"/>
  <path d="M11.15,25.37c7.07,0,13.23-3.9,16.43-9.66.11-.2.22-.41.33-.61-.21.42-.47.81-.75,1.18-.16.21-.34.41-.52.61-.25.27-.53.51-.82.73-.12.09-.24.18-.37.27-.16.11-.33.21-.5.31-.5.28-1.03.5-1.58.65-.28.08-.56.14-.84.18-.2.03-.41.05-.62.07-.22.02-.44.02-.66.02-.25,0-.5-.02-.74-.05-.18-.02-.37-.05-.55-.08-.16-.03-.32-.06-.48-.1-.09-.02-.17-.04-.25-.07-.23-.06-.47-.13-.7-.2-.12-.04-.23-.07-.35-.1-.17-.05-.35-.1-.52-.16-.14-.04-.28-.09-.42-.14-.13-.04-.27-.09-.4-.13l-.27-.09-.33-.12-.23-.09c-.16-.05-.31-.11-.47-.17-.09-.04-.18-.07-.27-.1l-.36-.14-.38-.15-.25-.1-.3-.13-.23-.1-.24-.11-.21-.09-.19-.09-.2-.09-.2-.09-.25-.12-.27-.13c-.09-.05-.19-.09-.28-.14l-.24-.12C7.45,13.84,3.65,11.01.45,7.58c-.1-.1-.26-.11-.37,0-.05.05-.08.11-.08.18v12.08s0,.98,0,.98c0,.57.28,1.1.75,1.42,3.07,2.05,6.69,3.14,10.39,3.14h0Z" fill="#3370FF"/>
  <path d="M31.92,8.34c-2.49-1.22-5.35-1.44-7.99-.6-.07.02-.15.05-.23.07-.69.24-1.36.54-1.99.91-.26.15-.51.32-.76.49-.37.26-.72.54-1.05.84-.09.09-.18.17-.28.26l-.48.47-.34.34-.37.37-.36.35-.38.38-.44.44-.32.32-.11.11c-.05.05-.11.11-.16.16l-.08.08-.12.11-.14.13c-1.18,1.08-2.49,2.01-3.9,2.76l.25.12.2.09.2.09.19.09.21.09.24.11.23.1.3.13.25.1.38.15c.12.05.24.09.36.14.09.04.18.07.27.1.16.06.31.11.46.17l.23.09c.11.04.22.08.33.12l.27.09c.13.04.27.09.4.13.14.05.28.09.42.14.17.05.35.11.52.16.35.1.7.2,1.05.3.09.02.17.04.25.07.16.04.32.07.48.1.18.03.37.06.55.08.67.08,1.36.06,2.03-.04.28-.04.56-.1.84-.18.35-.1.7-.22,1.03-.37.28-.12.54-.27.8-.43.09-.05.16-.11.24-.16.13-.09.25-.17.37-.27.11-.08.21-.16.31-.25.38-.33.73-.7,1.03-1.1.28-.37.53-.76.75-1.17l.18-.36,1.63-3.25.02-.04c.53-1.16,1.27-2.21,2.18-3.1Z" fill="#133C9A"/>
</svg>
