<svg xmlns="http://www.w3.org/2000/svg" width="44" height="44" viewBox="0 0 44 44" fill="none">
  <g transform="translate(4, 2)">
    <path d="M28 4 H32 C32 9 35 12 39 12 V16 C35.5 16 32.4 14.6 30 12.4 V26 C30 32.6 24.6 38 18 38 C11.4 38 6 32.6 6 26 C6 19.4 11.4 14 18 14 C19 14 20 14.1 21 14.4 V20.7 C20 20.3 19 20 18 20 C14.7 20 12 22.7 12 26 C12 29.3 14.7 32 18 32 C21.3 32 24 29.3 24 26 V4 Z" fill="#25F4EE"/>
  </g>
  <g transform="translate(0, 4)">
    <path d="M28 4 H32 C32 9 35 12 39 12 V16 C35.5 16 32.4 14.6 30 12.4 V26 C30 32.6 24.6 38 18 38 C11.4 38 6 32.6 6 26 C6 19.4 11.4 14 18 14 C19 14 20 14.1 21 14.4 V20.7 C20 20.3 19 20 18 20 C14.7 20 12 22.7 12 26 C12 29.3 14.7 32 18 32 C21.3 32 24 29.3 24 26 V4 Z" fill="#FE2C55"/>
  </g>
  <g transform="translate(2, 3)">
    <path d="M28 4 H32 C32 9 35 12 39 12 V16 C35.5 16 32.4 14.6 30 12.4 V26 C30 32.6 24.6 38 18 38 C11.4 38 6 32.6 6 26 C6 19.4 11.4 14 18 14 C19 14 20 14.1 21 14.4 V20.7 C20 20.3 19 20 18 20 C14.7 20 12 22.7 12 26 C12 29.3 14.7 32 18 32 C21.3 32 24 29.3 24 26 V4 Z" fill="#000000"/>
  </g>
</svg>
