<svg width="16" height="16" viewBox="0 0 16 16" fill="none" xmlns="http://www.w3.org/2000/svg">
<path d="M1.33301 13V10.5C1.33301 10.1318 1.63181 9.83301 2 9.83301C2.36819 9.83301 2.66699 10.1318 2.66699 10.5V13C2.66699 13.1841 2.8159 13.333 3 13.333H5.5C5.86819 13.333 6.16699 13.6318 6.16699 14C6.16699 14.3682 5.86819 14.667 5.5 14.667H3C2.07953 14.667 1.33301 13.9205 1.33301 13ZM13.333 13V10.5C13.333 10.1318 13.6318 9.83301 14 9.83301C14.3682 9.83301 14.667 10.1318 14.667 10.5V13C14.667 13.9205 13.9205 14.667 13 14.667H10.5C10.1318 14.667 9.83301 14.3682 9.83301 14C9.83301 13.6318 10.1318 13.333 10.5 13.333H13C13.1841 13.333 13.333 13.1841 13.333 13ZM1.33301 5.5V3C1.33301 2.07953 2.07953 1.33301 3 1.33301H5.5C5.86819 1.33301 6.16699 1.63181 6.16699 2C6.16699 2.36819 5.86819 2.66699 5.5 2.66699H3C2.81591 2.66699 2.66699 2.81591 2.66699 3V5.5C2.66699 5.86819 2.36819 6.16699 2 6.16699C1.63181 6.16699 1.33301 5.86819 1.33301 5.5ZM13.333 5.5V3C13.333 2.81591 13.1841 2.66699 13 2.66699H10.5C10.1318 2.66699 9.83301 2.36819 9.83301 2C9.83301 1.63181 10.1318 1.33301 10.5 1.33301H13C13.9205 1.33301 14.667 2.07953 14.667 3V5.5C14.667 5.86819 14.3682 6.16699 14 6.16699C13.6318 6.16699 13.333 5.86819 13.333 5.5Z" fill="#333333"/>
<path d="M5.66699 10.333H10.333V5.66699H5.66699V10.333ZM11.667 10.5C11.667 11.1443 11.1443 11.667 10.5 11.667H5.5C4.85568 11.667 4.33301 11.1443 4.33301 10.5V5.5C4.33301 4.85567 4.85567 4.33301 5.5 4.33301H10.5C11.1443 4.33301 11.667 4.85567 11.667 5.5V10.5Z" fill="#333333"/>
</svg>
