<svg width="16" height="16" viewBox="0 0 16 16" fill="none" xmlns="http://www.w3.org/2000/svg">
<path d="M13 1.83496C14.1957 1.83496 15.165 2.8043 15.165 4C15.165 4.96353 14.5352 5.77881 13.665 6.05957V9.93945C14.5353 10.2201 15.165 11.0364 15.165 12C15.165 13.1957 14.1957 14.165 13 14.165C12.0365 14.165 11.2212 13.5352 10.9404 12.665H5.05957C4.77881 13.5352 3.96353 14.165 3 14.165C1.8043 14.165 0.834961 13.1957 0.834961 12C0.834961 11.0364 1.46469 10.2201 2.33496 9.93945V6.05957C1.46483 5.77881 0.834961 4.96353 0.834961 4C0.834961 2.8043 1.8043 1.83496 3 1.83496C3.96353 1.83496 4.77881 2.46483 5.05957 3.33496H10.9404C11.2212 2.46483 12.0365 1.83496 13 1.83496ZM3 11.165C2.53884 11.165 2.16504 11.5388 2.16504 12C2.16504 12.4612 2.53884 12.835 3 12.835C3.46116 12.835 3.83496 12.4612 3.83496 12C3.83496 11.5388 3.46116 11.165 3 11.165ZM13 11.165C12.5388 11.165 12.165 11.5388 12.165 12C12.165 12.4612 12.5388 12.835 13 12.835C13.4612 12.835 13.835 12.4612 13.835 12C13.835 11.5388 13.4612 11.165 13 11.165ZM5.05957 4.66504C4.84646 5.32551 4.32551 5.84646 3.66504 6.05957V9.93945C4.32564 10.1525 4.84642 10.6744 5.05957 11.335H10.9404C11.1536 10.6744 11.6744 10.1525 12.335 9.93945V6.05957C11.6745 5.84646 11.1535 5.32551 10.9404 4.66504H5.05957ZM3 3.16504C2.53884 3.16504 2.16504 3.53884 2.16504 4C2.16504 4.46116 2.53884 4.83496 3 4.83496C3.46116 4.83496 3.83496 4.46116 3.83496 4C3.83496 3.53884 3.46116 3.16504 3 3.16504ZM13 3.16504C12.5388 3.16504 12.165 3.53884 12.165 4C12.165 4.46116 12.5388 4.83496 13 4.83496C13.4612 4.83496 13.835 4.46116 13.835 4C13.835 3.53884 13.4612 3.16504 13 3.16504Z" fill="#333333"/>
</svg>
