<svg width="383" height="169" viewBox="0 0 383 169" fill="none" xmlns="http://www.w3.org/2000/svg">
<path d="M0 16C0 7.16346 7.16344 5.00835e-07 16 1.11865e-06L367 2.56589e-05C375.837 2.62767e-05 383 7.16347 383 16V151.593C383 160.429 375.837 167.593 367 167.593H16C7.16345 167.593 0 160.429 0 151.593V16Z" fill="#1C1C1C"/>
<path d="M0 16C0 7.16346 7.16344 5.00835e-07 16 1.11865e-06L367 2.56589e-05C375.837 2.62767e-05 383 7.16347 383 16V151.593C383 160.429 375.837 167.593 367 167.593H16C7.16345 167.593 0 160.429 0 151.593V16Z" fill="url(#paint0_radial_6618_16342)"/>
<path d="M0 16C0 7.16346 7.16344 5.00835e-07 16 1.11865e-06L367 2.56589e-05C375.837 2.62767e-05 383 7.16347 383 16V151.593C383 160.429 375.837 167.593 367 167.593H16C7.16345 167.593 0 160.429 0 151.593V16Z" fill="url(#paint1_radial_6618_16342)"/>
<g clip-path="url(#clip0_6618_16342)">
<rect x="-24" y="0.203857" width="24" height="24" stroke="white" stroke-opacity="0.025" stroke-width="0.48"/>
<rect y="0.203857" width="24" height="24" stroke="white" stroke-opacity="0.025" stroke-width="0.48"/>
<rect x="24" y="0.203857" width="24" height="24" stroke="white" stroke-opacity="0.025" stroke-width="0.48"/>
<rect x="48" y="0.203857" width="24" height="24" stroke="white" stroke-opacity="0.025" stroke-width="0.48"/>
<rect x="72" y="0.203857" width="24" height="24" stroke="white" stroke-opacity="0.025" stroke-width="0.48"/>
<rect x="96" y="0.203857" width="24" height="24" stroke="white" stroke-opacity="0.025" stroke-width="0.48"/>
<rect x="120" y="0.203857" width="24" height="24" stroke="white" stroke-opacity="0.025" stroke-width="0.48"/>
<rect x="144" y="0.203857" width="24" height="24" stroke="white" stroke-opacity="0.025" stroke-width="0.48"/>
<rect x="168" y="0.203857" width="24" height="24" stroke="white" stroke-opacity="0.025" stroke-width="0.48"/>
<rect x="192" y="0.203857" width="24" height="24" stroke="white" stroke-opacity="0.025" stroke-width="0.48"/>
<rect x="216" y="0.203857" width="24" height="24" stroke="white" stroke-opacity="0.025" stroke-width="0.48"/>
<rect x="240" y="0.203857" width="24" height="24" stroke="white" stroke-opacity="0.025" stroke-width="0.48"/>
<rect x="264" y="0.203857" width="24" height="24" stroke="white" stroke-opacity="0.025" stroke-width="0.48"/>
<rect x="288" y="0.203857" width="24" height="24" stroke="white" stroke-opacity="0.025" stroke-width="0.48"/>
<rect x="312" y="0.203857" width="24" height="24" stroke="white" stroke-opacity="0.025" stroke-width="0.48"/>
<rect x="336" y="0.203857" width="24" height="24" stroke="white" stroke-opacity="0.025" stroke-width="0.48"/>
<rect x="360" y="0.203857" width="24" height="24" stroke="white" stroke-opacity="0.025" stroke-width="0.48"/>
<rect x="-24" y="24.2039" width="24" height="24" stroke="white" stroke-opacity="0.025" stroke-width="0.48"/>
<rect y="24.2039" width="24" height="24" stroke="white" stroke-opacity="0.025" stroke-width="0.48"/>
<rect x="24" y="24.2039" width="24" height="24" stroke="white" stroke-opacity="0.025" stroke-width="0.48"/>
<rect x="48" y="24.2039" width="24" height="24" stroke="white" stroke-opacity="0.025" stroke-width="0.48"/>
<rect x="72" y="24.2039" width="24" height="24" stroke="white" stroke-opacity="0.025" stroke-width="0.48"/>
<rect x="96" y="24.2039" width="24" height="24" stroke="white" stroke-opacity="0.025" stroke-width="0.48"/>
<rect x="120" y="24.2039" width="24" height="24" fill="#2B76FF" fill-opacity="0.01" stroke="white" stroke-opacity="0.025" stroke-width="0.48"/>
<rect x="144" y="24.2039" width="24" height="24" stroke="white" stroke-opacity="0.025" stroke-width="0.48"/>
<rect x="168" y="24.2039" width="24" height="24" stroke="white" stroke-opacity="0.025" stroke-width="0.48"/>
<rect x="192" y="24.2039" width="24" height="24" stroke="white" stroke-opacity="0.025" stroke-width="0.48"/>
<rect x="216" y="24.2039" width="24" height="24" stroke="white" stroke-opacity="0.025" stroke-width="0.48"/>
<rect x="240" y="24.2039" width="24" height="24" stroke="white" stroke-opacity="0.025" stroke-width="0.48"/>
<path d="M264 24.2039H288V48.2039H264V24.2039Z" fill="#474C56" fill-opacity="0.01" stroke="white" stroke-opacity="0.025" stroke-width="0.48"/>
<rect x="288" y="24.2039" width="24" height="24" stroke="white" stroke-opacity="0.025" stroke-width="0.48"/>
<rect x="312" y="24.2039" width="24" height="24" stroke="white" stroke-opacity="0.025" stroke-width="0.48"/>
<rect x="336" y="24.2039" width="24" height="24" stroke="white" stroke-opacity="0.025" stroke-width="0.48"/>
<rect x="360" y="24.2039" width="24" height="24" stroke="white" stroke-opacity="0.025" stroke-width="0.48"/>
<rect x="-24" y="48.2039" width="24" height="24" stroke="white" stroke-opacity="0.025" stroke-width="0.48"/>
<rect y="48.2039" width="24" height="24" stroke="white" stroke-opacity="0.025" stroke-width="0.48"/>
<rect x="24" y="48.2039" width="24" height="24" stroke="white" stroke-opacity="0.025" stroke-width="0.48"/>
<rect x="48" y="48.2039" width="24" height="24" stroke="white" stroke-opacity="0.025" stroke-width="0.48"/>
<path d="M72 48.2039H96V72.2039H72V48.2039Z" fill="#474C56" fill-opacity="0.01" stroke="white" stroke-opacity="0.025" stroke-width="0.48"/>
<rect x="96" y="48.2039" width="24" height="24" stroke="white" stroke-opacity="0.025" stroke-width="0.48"/>
<rect x="120" y="48.2039" width="24" height="24" stroke="white" stroke-opacity="0.025" stroke-width="0.48"/>
<rect x="144" y="48.2039" width="24" height="24" stroke="white" stroke-opacity="0.025" stroke-width="0.48"/>
<rect x="168" y="48.2039" width="24" height="24" stroke="white" stroke-opacity="0.025" stroke-width="0.48"/>
<rect x="192" y="48.2039" width="24" height="24" stroke="white" stroke-opacity="0.025" stroke-width="0.48"/>
<rect x="216" y="48.2039" width="24" height="24" stroke="white" stroke-opacity="0.025" stroke-width="0.48"/>
<rect x="240" y="48.2039" width="24" height="24" stroke="white" stroke-opacity="0.025" stroke-width="0.48"/>
<rect x="264" y="48.2039" width="24" height="24" stroke="white" stroke-opacity="0.025" stroke-width="0.48"/>
<rect x="288" y="48.2039" width="24" height="24" fill="#2B76FF" fill-opacity="0.01" stroke="white" stroke-opacity="0.025" stroke-width="0.48"/>
<rect x="312" y="48.2039" width="24" height="24" stroke="white" stroke-opacity="0.025" stroke-width="0.48"/>
<rect x="336" y="48.2039" width="24" height="24" stroke="white" stroke-opacity="0.025" stroke-width="0.48"/>
<rect x="360" y="48.2039" width="24" height="24" stroke="white" stroke-opacity="0.025" stroke-width="0.48"/>
<rect x="-24" y="72.2039" width="24" height="24" stroke="white" stroke-opacity="0.025" stroke-width="0.48"/>
<rect y="72.2039" width="24" height="24" stroke="white" stroke-opacity="0.025" stroke-width="0.48"/>
<rect x="24" y="72.2039" width="24" height="24" stroke="white" stroke-opacity="0.025" stroke-width="0.48"/>
<rect x="48" y="72.2039" width="24" height="24" stroke="white" stroke-opacity="0.025" stroke-width="0.48"/>
<rect x="72" y="72.2039" width="24" height="24" stroke="white" stroke-opacity="0.025" stroke-width="0.48"/>
<rect x="96" y="72.2039" width="24" height="24" stroke="white" stroke-opacity="0.025" stroke-width="0.48"/>
<rect x="120" y="72.2039" width="24" height="24" stroke="white" stroke-opacity="0.025" stroke-width="0.48"/>
<rect x="144" y="72.2039" width="24" height="24" stroke="white" stroke-opacity="0.025" stroke-width="0.48"/>
<rect x="168" y="72.2039" width="24" height="24" stroke="white" stroke-opacity="0.025" stroke-width="0.48"/>
<rect x="192" y="72.2039" width="24" height="24" stroke="white" stroke-opacity="0.025" stroke-width="0.48"/>
<rect x="216" y="72.2039" width="24" height="24" stroke="white" stroke-opacity="0.025" stroke-width="0.48"/>
<rect x="240" y="72.2039" width="24" height="24" stroke="white" stroke-opacity="0.025" stroke-width="0.48"/>
<rect x="264" y="72.2039" width="24" height="24" stroke="white" stroke-opacity="0.025" stroke-width="0.48"/>
<rect x="288" y="72.2039" width="24" height="24" stroke="white" stroke-opacity="0.025" stroke-width="0.48"/>
<rect x="312" y="72.2039" width="24" height="24" stroke="white" stroke-opacity="0.025" stroke-width="0.48"/>
<rect x="336" y="72.2039" width="24" height="24" stroke="white" stroke-opacity="0.025" stroke-width="0.48"/>
<rect x="360" y="72.2039" width="24" height="24" stroke="white" stroke-opacity="0.025" stroke-width="0.48"/>
<rect x="-24" y="96.2039" width="24" height="24" fill="white" fill-opacity="0.025" stroke="white" stroke-opacity="0.025" stroke-width="0.48"/>
<rect y="96.2039" width="24" height="24" stroke="white" stroke-opacity="0.025" stroke-width="0.48"/>
<rect x="24" y="96.2039" width="24" height="24" stroke="white" stroke-opacity="0.025" stroke-width="0.48"/>
<rect x="48" y="96.2039" width="24" height="24" stroke="white" stroke-opacity="0.025" stroke-width="0.48"/>
<rect x="72" y="96.2039" width="24" height="24" stroke="white" stroke-opacity="0.025" stroke-width="0.48"/>
<rect x="96" y="96.2039" width="24" height="24" stroke="white" stroke-opacity="0.025" stroke-width="0.48"/>
<rect x="120" y="96.2039" width="24" height="24" stroke="white" stroke-opacity="0.025" stroke-width="0.48"/>
<rect x="144" y="96.2039" width="24" height="24" stroke="white" stroke-opacity="0.025" stroke-width="0.48"/>
<rect x="168" y="96.2039" width="24" height="24" stroke="white" stroke-opacity="0.025" stroke-width="0.48"/>
<rect x="192" y="96.2039" width="24" height="24" fill="#2B76FF" fill-opacity="0.01" stroke="white" stroke-opacity="0.025" stroke-width="0.48"/>
<rect x="216" y="96.2039" width="24" height="24" stroke="white" stroke-opacity="0.025" stroke-width="0.48"/>
<rect x="240" y="96.2039" width="24" height="24" stroke="white" stroke-opacity="0.025" stroke-width="0.48"/>
<rect x="264" y="96.2039" width="24" height="24" stroke="white" stroke-opacity="0.025" stroke-width="0.48"/>
<rect x="288" y="96.2039" width="24" height="24" stroke="white" stroke-opacity="0.025" stroke-width="0.48"/>
<rect x="312" y="96.2039" width="24" height="24" stroke="white" stroke-opacity="0.025" stroke-width="0.48"/>
<rect x="336" y="96.2039" width="24" height="24" stroke="white" stroke-opacity="0.025" stroke-width="0.48"/>
<rect x="360" y="96.2039" width="24" height="24" stroke="white" stroke-opacity="0.025" stroke-width="0.48"/>
<rect x="-24" y="120.204" width="24" height="24" stroke="white" stroke-opacity="0.025" stroke-width="0.48"/>
<rect y="120.204" width="24" height="24" stroke="white" stroke-opacity="0.025" stroke-width="0.48"/>
<rect x="24" y="120.204" width="24" height="24" stroke="white" stroke-opacity="0.025" stroke-width="0.48"/>
<rect x="48" y="120.204" width="24" height="24" stroke="white" stroke-opacity="0.025" stroke-width="0.48"/>
<rect x="72" y="120.204" width="24" height="24" stroke="white" stroke-opacity="0.025" stroke-width="0.48"/>
<rect x="96" y="120.204" width="24" height="24" stroke="white" stroke-opacity="0.025" stroke-width="0.48"/>
<rect x="120" y="120.204" width="24" height="24" stroke="white" stroke-opacity="0.025" stroke-width="0.48"/>
<rect x="144" y="120.204" width="24" height="24" stroke="white" stroke-opacity="0.025" stroke-width="0.48"/>
<rect x="168" y="120.204" width="24" height="24" stroke="white" stroke-opacity="0.025" stroke-width="0.48"/>
<rect x="192" y="120.204" width="24" height="24" stroke="white" stroke-opacity="0.025" stroke-width="0.48"/>
<rect x="216" y="120.204" width="24" height="24" stroke="white" stroke-opacity="0.025" stroke-width="0.48"/>
<rect x="240" y="120.204" width="24" height="24" stroke="white" stroke-opacity="0.025" stroke-width="0.48"/>
<rect x="264" y="120.204" width="24" height="24" stroke="white" stroke-opacity="0.025" stroke-width="0.48"/>
<rect x="288" y="120.204" width="24" height="24" stroke="white" stroke-opacity="0.025" stroke-width="0.48"/>
<rect x="312" y="120.204" width="24" height="24" fill="#474C56" fill-opacity="0.01" stroke="white" stroke-opacity="0.025" stroke-width="0.48"/>
<rect x="336" y="120.204" width="24" height="24" fill="#2B76FF" fill-opacity="0.01" stroke="white" stroke-opacity="0.025" stroke-width="0.48"/>
<rect x="360" y="120.204" width="24" height="24" stroke="white" stroke-opacity="0.025" stroke-width="0.48"/>
<rect x="-24" y="144.204" width="24" height="24" stroke="white" stroke-opacity="0.025" stroke-width="0.48"/>
<rect y="144.204" width="24" height="24" stroke="white" stroke-opacity="0.025" stroke-width="0.48"/>
<rect x="24" y="144.204" width="24" height="24" stroke="white" stroke-opacity="0.025" stroke-width="0.48"/>
<rect x="48" y="144.204" width="24" height="24" stroke="white" stroke-opacity="0.025" stroke-width="0.48"/>
<rect x="72" y="144.204" width="24" height="24" stroke="white" stroke-opacity="0.025" stroke-width="0.48"/>
<rect x="96" y="144.204" width="24" height="24" stroke="white" stroke-opacity="0.025" stroke-width="0.48"/>
<rect x="120" y="144.204" width="24" height="24" stroke="white" stroke-opacity="0.025" stroke-width="0.48"/>
<rect x="144" y="144.204" width="24" height="24" stroke="white" stroke-opacity="0.025" stroke-width="0.48"/>
<rect x="168" y="144.204" width="24" height="24" stroke="white" stroke-opacity="0.025" stroke-width="0.48"/>
<rect x="192" y="144.204" width="24" height="24" stroke="white" stroke-opacity="0.025" stroke-width="0.48"/>
<rect x="216" y="144.204" width="24" height="24" stroke="white" stroke-opacity="0.025" stroke-width="0.48"/>
<rect x="240" y="144.204" width="24" height="24" stroke="white" stroke-opacity="0.025" stroke-width="0.48"/>
<rect x="264" y="144.204" width="24" height="24" stroke="white" stroke-opacity="0.025" stroke-width="0.48"/>
<rect x="288" y="144.204" width="24" height="24" stroke="white" stroke-opacity="0.025" stroke-width="0.48"/>
<rect x="312" y="144.204" width="24" height="24" stroke="white" stroke-opacity="0.025" stroke-width="0.48"/>
<rect x="336" y="144.204" width="24" height="24" stroke="white" stroke-opacity="0.025" stroke-width="0.48"/>
<rect x="360" y="144.204" width="24" height="24" stroke="white" stroke-opacity="0.025" stroke-width="0.48"/>
<rect x="-24" y="168.204" width="24" height="24" stroke="white" stroke-opacity="0.025" stroke-width="0.48"/>
<rect y="168.204" width="24" height="24" stroke="white" stroke-opacity="0.025" stroke-width="0.48"/>
<rect x="24" y="168.204" width="24" height="24" stroke="white" stroke-opacity="0.025" stroke-width="0.48"/>
<rect x="48" y="168.204" width="24" height="24" stroke="white" stroke-opacity="0.025" stroke-width="0.48"/>
<rect x="72" y="168.204" width="24" height="24" stroke="white" stroke-opacity="0.025" stroke-width="0.48"/>
<rect x="96" y="168.204" width="24" height="24" fill="white" fill-opacity="0.025" stroke="white" stroke-opacity="0.025" stroke-width="0.48"/>
<rect x="120" y="168.204" width="24" height="24" stroke="white" stroke-opacity="0.025" stroke-width="0.48"/>
<rect x="144" y="168.204" width="24" height="24" stroke="white" stroke-opacity="0.025" stroke-width="0.48"/>
<rect x="168" y="168.204" width="24" height="24" stroke="white" stroke-opacity="0.025" stroke-width="0.48"/>
<rect x="192" y="168.204" width="24" height="24" stroke="white" stroke-opacity="0.025" stroke-width="0.48"/>
<rect x="216" y="168.204" width="24" height="24" stroke="white" stroke-opacity="0.025" stroke-width="0.48"/>
<rect x="240" y="168.204" width="24" height="24" stroke="white" stroke-opacity="0.025" stroke-width="0.48"/>
<rect x="264" y="168.204" width="24" height="24" stroke="white" stroke-opacity="0.025" stroke-width="0.48"/>
<rect x="288" y="168.204" width="24" height="24" stroke="white" stroke-opacity="0.025" stroke-width="0.48"/>
<rect x="312" y="168.204" width="24" height="24" stroke="white" stroke-opacity="0.025" stroke-width="0.48"/>
<rect x="336" y="168.204" width="24" height="24" stroke="white" stroke-opacity="0.025" stroke-width="0.48"/>
<rect x="360" y="168.204" width="24" height="24" stroke="white" stroke-opacity="0.025" stroke-width="0.48"/>
</g>
<defs>
<radialGradient id="paint0_radial_6618_16342" cx="0" cy="0" r="1" gradientUnits="userSpaceOnUse" gradientTransform="translate(383 193.982) rotate(-90) scale(193.5 200.494)">
<stop stop-color="#7AE0FF" stop-opacity="0.06"/>
<stop offset="1" stop-color="#1C1C1C" stop-opacity="0"/>
</radialGradient>
<radialGradient id="paint1_radial_6618_16342" cx="0" cy="0" r="1" gradientUnits="userSpaceOnUse" gradientTransform="translate(202.5 204.482) rotate(-141.021) scale(266.28 275.905)">
<stop stop-color="#7AE0FF" stop-opacity="0.08"/>
<stop offset="1" stop-color="#1C1C1C" stop-opacity="0"/>
</radialGradient>
<clipPath id="clip0_6618_16342">
<rect y="0.203857" width="383" height="168" rx="16" fill="white"/>
</clipPath>
</defs>
</svg>
