<svg width="24" height="24" viewBox="0 0 24 24" fill="none" xmlns="http://www.w3.org/2000/svg">
<path d="M22 9.48259C18.6126 6.27244 14.0595 5.0029 9.75 5.674" stroke="#6D6D6D" stroke-width="2" stroke-linecap="round" stroke-linejoin="round"/>
<path d="M19 12.8994C17.6433 11.5427 15.9908 10.6621 14.25 10.2576" stroke="#6D6D6D" stroke-width="2" stroke-linecap="round" stroke-linejoin="round"/>
<path d="M5 12.8995C5.6638 12.2357 6.39845 11.6858 7.17955 11.25" stroke="#6D6D6D" stroke-width="2" stroke-linecap="round" stroke-linejoin="round"/>
<path d="M8 16.1569C8.7194 15.4376 9.5843 14.9524 10.5 14.7016" stroke="#6D6D6D" stroke-width="2" stroke-linecap="round" stroke-linejoin="round"/>
<path fill-rule="evenodd" clip-rule="evenodd" d="M12 19.9999C12.6904 19.9999 13.25 19.4403 13.25 18.7499C13.25 18.0596 12.6904 17.4999 12 17.4999C11.3097 17.4999 10.75 18.0596 10.75 18.7499C10.75 19.4403 11.3097 19.9999 12 19.9999Z" fill="#6D6D6D"/>
<path d="M20 19.9999L4 3.99994" stroke="#6D6D6D" stroke-width="2" stroke-linecap="round" stroke-linejoin="round"/>
<path d="M2 9.48268C2.2944 9.20368 2.59761 8.93933 2.9087 8.68968C3.18321 8.46933 3.46385 8.26043 3.74999 8.06293" stroke="#6D6D6D" stroke-width="2" stroke-linecap="round" stroke-linejoin="round"/>
</svg>
