<svg width="24" height="24" viewBox="0 0 24 24" fill="none" xmlns="http://www.w3.org/2000/svg">
<path d="M22 9.48266C18.6126 6.27251 14.0595 5.00296 9.75 5.67406" stroke="#E13E37" stroke-width="2" stroke-linecap="round" stroke-linejoin="round"/>
<path d="M19 12.8995C17.6433 11.5427 15.9908 10.6621 14.25 10.2577" stroke="#E13E37" stroke-width="2" stroke-linecap="round" stroke-linejoin="round"/>
<path d="M5 12.8995C5.6638 12.2357 6.39845 11.6858 7.17955 11.25" stroke="#E13E37" stroke-width="2" stroke-linecap="round" stroke-linejoin="round"/>
<path d="M8 16.1569C8.7194 15.4375 9.5843 14.9524 10.5 14.7015" stroke="#E13E37" stroke-width="2" stroke-linecap="round" stroke-linejoin="round"/>
<path fill-rule="evenodd" clip-rule="evenodd" d="M12 20C12.6904 20 13.25 19.4404 13.25 18.75C13.25 18.0597 12.6904 17.5 12 17.5C11.3097 17.5 10.75 18.0597 10.75 18.75C10.75 19.4404 11.3097 20 12 20Z" fill="#E13E37"/>
<path d="M20 20L4 4" stroke="#E13E37" stroke-width="2" stroke-linecap="round" stroke-linejoin="round"/>
<path d="M2 9.48262C2.2944 9.20362 2.59761 8.93927 2.9087 8.68962C3.18321 8.46927 3.46385 8.26037 3.74999 8.06287" stroke="#E13E37" stroke-width="2" stroke-linecap="round" stroke-linejoin="round"/>
</svg>
