<svg width="16" height="16" viewBox="0 0 16 16" fill="none" xmlns="http://www.w3.org/2000/svg">
<path d="M7.99992 10.6666C11.6818 10.6666 14.6666 9.47269 14.6666 7.99992C14.6666 6.52715 11.6818 5.33325 7.99992 5.33325C4.31802 5.33325 1.33325 6.52715 1.33325 7.99992C1.33325 9.47269 4.31802 10.6666 7.99992 10.6666Z" stroke="#333333" stroke-linecap="round" stroke-linejoin="round"/>
<path d="M10.6666 7.99992C10.6666 11.6818 9.47269 14.6666 7.99992 14.6666C6.52715 14.6666 5.33325 11.6818 5.33325 7.99992C5.33325 4.31802 6.52715 1.33325 7.99992 1.33325C9.47269 1.33325 10.6666 4.31802 10.6666 7.99992Z" stroke="#333333" stroke-linecap="round" stroke-linejoin="round"/>
<path d="M7.99992 14.6666C11.6818 14.6666 14.6666 11.6818 14.6666 7.99992C14.6666 4.31802 11.6818 1.33325 7.99992 1.33325C4.31802 1.33325 1.33325 4.31802 1.33325 7.99992C1.33325 11.6818 4.31802 14.6666 7.99992 14.6666Z" stroke="#333333" stroke-linejoin="round"/>
</svg>
