<svg width="64" height="64" viewBox="0 0 64 64" fill="none" xmlns="http://www.w3.org/2000/svg">
  <!-- Background circle -->
  <circle cx="32" cy="32" r="28" fill="#9333EA" opacity="0.08"/>

  <!-- Puzzle piece left -->
  <path d="M14 22H26V26C26 26 23 26 23 29C23 32 26 32 26 32V36H14V22Z" fill="#9333EA" opacity="0.7"/>

  <!-- Puzzle piece right -->
  <path d="M26 22H38V26C38 26 41 26 41 29C41 32 38 32 38 32V36H26V32C26 32 29 32 29 29C29 26 26 26 26 26V22Z" fill="#9333EA"/>

  <!-- Puzzle piece bottom-left -->
  <path d="M14 36H26V40C26 40 23 40 23 43C23 46 26 46 26 46V50H14V36Z" fill="#9333EA" opacity="0.45"/>

  <!-- Puzzle piece bottom-right -->
  <path d="M26 36H38V40C38 40 41 40 41 43C41 46 38 46 38 46V50H26V46C26 46 29 46 29 43C29 40 26 40 26 40V36Z" fill="#9333EA" opacity="0.6"/>

  <!-- Connector arrow -->
  <path d="M42 28L50 28" stroke="#9333EA" stroke-width="2.5" stroke-linecap="round"/>
  <path d="M47 24L51 28L47 32" stroke="#9333EA" stroke-width="2.5" stroke-linecap="round" stroke-linejoin="round"/>

  <!-- YAML lines -->
  <rect x="42" y="38" width="12" height="2.5" rx="1.25" fill="#9333EA" opacity="0.5"/>
  <rect x="44" y="43" width="10" height="2.5" rx="1.25" fill="#9333EA" opacity="0.35"/>
  <rect x="44" y="48" width="8" height="2.5" rx="1.25" fill="#9333EA" opacity="0.25"/>
</svg>
