<svg width="64" height="64" viewBox="0 0 64 64" fill="none" xmlns="http://www.w3.org/2000/svg">
  <!-- Background circles representing different models -->
  <circle cx="24" cy="28" r="12" fill="#0555FF" opacity="0.15"/>
  <circle cx="40" cy="28" r="12" fill="#9B59B6" opacity="0.15"/>
  <circle cx="32" cy="42" r="12" fill="#1FA679" opacity="0.15"/>

  <!-- Model nodes -->
  <circle cx="24" cy="28" r="8" fill="#0555FF"/>
  <circle cx="40" cy="28" r="8" fill="#9B59B6"/>
  <circle cx="32" cy="42" r="8" fill="#1FA679"/>

  <!-- Connection lines -->
  <line x1="30" y1="32" x2="26" y2="38" stroke="#666" stroke-width="2" opacity="0.5"/>
  <line x1="34" y1="32" x2="38" y2="38" stroke="#666" stroke-width="2" opacity="0.5"/>
  <line x1="30" y1="28" x2="34" y2="28" stroke="#666" stroke-width="2" opacity="0.5"/>

  <!-- Icons inside circles -->
  <!-- Planning model (brain icon) -->
  <path d="M24 24C23 24 22 24.5 22 25.5C22 26 22.2 26.4 22.5 26.7L21.5 27.7C21.3 27.9 21.2 28.1 21.2 28.3V30C21.2 30.5 21.6 31 22 31H22.5V31.8C22.5 32.3 22.9 32.8 23.3 32.8H24.5V33.5C24.5 34 24.9 34.5 25.3 34.5H26.7C27.1 34.5 27.5 34 27.5 33.5V32.8H28.7C29.1 32.8 29.5 32.3 29.5 31.8V31H30C30.4 31 30.8 30.5 30.8 30V28.3C30.8 28.1 30.7 27.9 30.5 27.7L29.5 26.7C29.8 26.4 30 26 30 25.5C30 24.5 29 24 28 24H24Z" fill="white"/>

  <!-- Insight model (eye icon) -->
  <ellipse cx="40" cy="28" rx="4" ry="2.5" fill="white" opacity="0.3"/>
  <circle cx="40" cy="28" r="2" fill="white"/>
  <circle cx="40" cy="28" r="1" fill="#9B59B6"/>

  <!-- Vision model (camera icon) -->
  <rect x="29" y="40" width="6" height="5" rx="1" fill="white"/>
  <circle cx="32" cy="42.5" r="1.5" fill="#1FA679"/>
  <rect x="30" y="39.5" width="1" height="0.5" fill="white"/>
</svg>
