<svg width="16" height="16" viewBox="0 0 16 16" fill="none" xmlns="http://www.w3.org/2000/svg">
<path fill-rule="evenodd" clip-rule="evenodd" d="M9.68001 1.99996C10.88 0.799959 12.88 0.719959 14.08 1.91996C15.28 3.11996 15.2 5.11996 14 6.31996L11.84 8.47996C11.6 8.71996 11.28 8.71996 11.04 8.47996C10.8 8.23996 10.8 7.91996 11.04 7.67996L13.2 5.51996C14 4.71996 14 3.43996 13.28 2.71996C12.56 1.99996 11.28 1.99996 10.48 2.79996L8.32001 4.95996C8.08001 5.19996 7.76001 5.19996 7.52001 4.95996C7.28001 4.71996 7.28001 4.39996 7.52001 4.15996L9.68001 1.99996ZM5.60001 13.2L7.76001 11.04C8.00001 10.8 8.32001 10.8 8.56001 11.04C8.80001 11.28 8.80001 11.6 8.56001 11.84L6.40001 14C5.20001 15.2 3.28001 15.36 2.00001 14.08C0.640014 12.8 0.800014 10.88 2.08001 9.67996L4.24001 7.51996C4.48001 7.27996 4.80001 7.27996 5.04001 7.51996C5.28001 7.75996 5.28001 8.07996 5.04001 8.31996L2.88001 10.48C2.08001 11.28 2.00001 12.48 2.80001 13.28C3.60001 14.08 4.80001 14 5.60001 13.2ZM10.24 4.95991C10.48 4.71991 10.88 4.71991 11.2 4.95991C11.44 5.19991 11.44 5.59991 11.2 5.91991L5.92001 11.1999C5.68001 11.4399 5.28001 11.4399 4.96001 11.1999C4.72001 10.9599 4.72001 10.5599 4.96001 10.2399L10.24 4.95991Z" fill="black" fill-opacity="0.25"/>
</svg>
