<svg width="16" height="16" viewBox="0 0 16 16" fill="none" xmlns="http://www.w3.org/2000/svg">
<path d="M14.08 1.92002C12.88 0.72002 10.88 0.80002 9.68 2.00002L7.52 4.16002C7.28 4.40002 7.28 4.72002 7.52 4.96002C7.76 5.20002 8.08 5.20002 8.32 4.96002L10.48 2.80002C11.28 2.00002 12.56 2.00002 13.28 2.72002C14 3.44002 14 4.72002 13.2 5.52002L11.04 7.68002C10.8 7.92002 10.8 8.24002 11.04 8.48002C11.28 8.72002 11.6 8.72002 11.84 8.48002L14 6.32002C15.2 5.12002 15.28 3.12002 14.08 1.92002ZM7.76 11.04L5.6 13.2C4.8 14 3.6 14.08 2.8 13.28C2 12.48 2.08 11.28 2.88 10.48L5.04 8.32002C5.28 8.08002 5.28 7.76002 5.04 7.52002C4.8 7.28002 4.48 7.28002 4.24 7.52002L2.08 9.68002C0.799999 10.88 0.639999 12.8 2 14.08C3.28 15.36 5.2 15.2 6.4 14L8.56 11.84C8.8 11.6 8.8 11.28 8.56 11.04C8.32 10.8 8 10.8 7.76 11.04ZM5.92 4.96002C5.68 4.72002 5.28 4.72002 4.96 4.96002C4.72 5.20002 4.72 5.60002 4.96 5.92002L10.24 11.2C10.48 11.44 10.88 11.44 11.2 11.2C11.44 10.96 11.44 10.56 11.2 10.24L5.92 4.96002Z" fill="#FF4550"/>
</svg>
