<svg width="16" height="16" viewBox="3 3 16 16" fill="none" xmlns="http://www.w3.org/2000/svg">
<path d="M8 11.4268C8.08737 11.4268 8.17414 11.4442 8.25488 11.4776C8.3357 11.511 8.4098 11.5603 8.47168 11.6221C8.53359 11.684 8.58271 11.758 8.61621 11.8389C8.64966 11.9197 8.66698 12.0063 8.66699 12.0938C8.66699 12.1812 8.64962 12.2679 8.61621 12.3487C8.58271 12.4295 8.53359 12.5036 8.47168 12.5655C8.40978 12.6274 8.33576 12.6765 8.25488 12.71C8.17411 12.7434 8.0874 12.7608 8 12.7608C7.91255 12.7608 7.82592 12.7434 7.74512 12.71C7.66423 12.6765 7.59023 12.6274 7.52832 12.5655C7.46648 12.5036 7.41727 12.4295 7.38379 12.3487C7.35041 12.2679 7.33398 12.1812 7.33398 12.0938C7.334 12.0064 7.35037 11.9197 7.38379 11.8389C7.41729 11.758 7.46642 11.684 7.52832 11.6221C7.59023 11.5602 7.66423 11.5111 7.74512 11.4776C7.82589 11.4441 7.91258 11.4268 8 11.4268ZM14 11.4268C14.1767 11.4268 14.3467 11.4972 14.4717 11.6221C14.5967 11.7471 14.667 11.917 14.667 12.0938C14.667 12.2706 14.5967 12.4404 14.4717 12.5655C14.3467 12.6905 14.1768 12.7608 14 12.7608C13.8232 12.7607 13.6533 12.6904 13.5283 12.5655C13.4034 12.4404 13.334 12.2705 13.334 12.0938C13.334 11.917 13.4033 11.7471 13.5283 11.6221C13.6533 11.4971 13.8232 11.4268 14 11.4268Z" fill="currentColor"/>
<path d="M18 15C18 14.0807 17.8189 13.1705 17.4672 12.3212C17.1154 11.4719 16.5998 10.7003 15.9497 10.0503C15.2997 9.40024 14.5281 8.88463 13.6788 8.53284C12.8295 8.18106 11.9193 8 11 8C10.0807 8 9.17049 8.18106 8.32122 8.53284C7.47194 8.88463 6.70026 9.40024 6.05025 10.0503C5.40024 10.7003 4.88463 11.4719 4.53284 12.3212C4.18106 13.1705 4 14.0807 4 15L18 15Z" stroke="currentColor" stroke-width="1.2" stroke-linejoin="round"/>
<line x1="7.36788" y1="8.69283" x2="6.32483" y2="6.8862" stroke="currentColor" stroke-width="1.2" stroke-linecap="round"/>
<line x1="0.6" y1="-0.6" x2="2.68611" y2="-0.6" transform="matrix(0.5 -0.866025 -0.866025 -0.5 13.439 8.84586)" stroke="currentColor" stroke-width="1.2" stroke-linecap="round"/>
</svg>
