<svg width="16" height="16" viewBox="0 0 16 16" fill="none" xmlns="http://www.w3.org/2000/svg">
<path d="M2 7.33301C2.36819 7.33301 2.66699 7.63181 2.66699 8C2.66699 10.9455 5.05449 13.333 8 13.333C9.43896 13.333 10.7441 12.7646 11.7041 11.8379C11.969 11.5823 12.3908 11.5896 12.6465 11.8545C12.902 12.1194 12.8946 12.5412 12.6299 12.7969C11.4313 13.9538 9.79811 14.667 8 14.667C5.81938 14.667 3.88341 13.6197 2.66699 12.001V13.333C2.66699 13.7012 2.36819 14 2 14C1.63181 14 1.33301 13.7012 1.33301 13.333V8C1.33301 7.63181 1.63181 7.33301 2 7.33301ZM10.3623 10.5459H9.37793L8.95605 9.29004H7.04297L6.62207 10.5459H5.6377L7.42969 5.4541H8.56836L10.3623 10.5459ZM8 1.33301C10.1803 1.33301 12.1166 2.37964 13.333 3.99805V2.66699C13.333 2.2988 13.6318 2 14 2C14.3682 2 14.667 2.2988 14.667 2.66699V8C14.667 8.04617 14.6623 8.09123 14.6533 8.13477C14.6265 8.26478 14.5621 8.38128 14.4717 8.47168C14.351 8.5924 14.1841 8.66699 14 8.66699C13.8159 8.66699 13.649 8.5924 13.5283 8.47168C13.4379 8.38128 13.3735 8.26478 13.3467 8.13477C13.3377 8.09123 13.333 8.04617 13.333 8C13.333 5.05449 10.9455 2.66699 8 2.66699C6.49314 2.66699 5.13284 3.29037 4.16211 4.2959C3.90639 4.5608 3.48463 4.56822 3.21973 4.3125C2.95504 4.05676 2.94748 3.63495 3.20312 3.37012C4.41471 2.1151 6.11665 1.33301 8 1.33301ZM7.29102 8.5498H8.70703L8.01855 6.49902H7.97852L7.29102 8.5498Z" fill="black"/>
</svg>
