<svg width="20" height="20" viewBox="0 0 20 20" fill="none" xmlns="http://www.w3.org/2000/svg">
<g clip-path="url(#clip0_2720_30)">
<path d="M18.1493 2.70646L17.2975 1.85468C17.2654 1.82253 17.2252 1.80847 17.183 1.80847C17.1408 1.80847 17.1007 1.82454 17.0685 1.85468L15.5397 3.38347C14.8751 2.93318 14.0905 2.6931 13.2877 2.69441C12.2591 2.69441 11.2306 3.08615 10.4451 3.87164L8.39799 5.91874C8.36808 5.94895 8.3513 5.98974 8.3513 6.03224C8.3513 6.07475 8.36808 6.11554 8.39799 6.14575L13.8562 11.604C13.8884 11.6362 13.9286 11.6502 13.9708 11.6502C14.0109 11.6502 14.0531 11.6341 14.0853 11.604L16.1324 9.55691C17.5165 8.17075 17.6792 6.02722 16.6205 4.46428L18.1493 2.93548C18.2116 2.87119 18.2116 2.76874 18.1493 2.70646ZM15.1641 8.59062L13.9708 9.78392L10.2181 6.03124L11.4114 4.83794C11.9116 4.33771 12.5786 4.06048 13.2877 4.06048C13.9969 4.06048 14.6618 4.3357 15.1641 4.83794C15.6643 5.33816 15.9415 6.00512 15.9415 6.71428C15.9415 7.42343 15.6643 8.08838 15.1641 8.59062ZM11.3431 10.7C11.3129 10.6701 11.2721 10.6533 11.2296 10.6533C11.1871 10.6533 11.1463 10.6701 11.1161 10.7L9.77812 12.0379L7.96406 10.2239L9.30401 8.88392C9.36629 8.82164 9.36629 8.71919 9.30401 8.65691L8.57276 7.92566C8.54256 7.89575 8.50177 7.87897 8.45926 7.87897C8.41675 7.87897 8.37596 7.89575 8.34575 7.92566L7.0058 9.26561L6.14196 8.40178C6.12696 8.38677 6.10909 8.37494 6.08941 8.367C6.06974 8.35906 6.04866 8.35517 6.02745 8.35557C5.98727 8.35557 5.94508 8.37164 5.91294 8.40178L3.86785 10.4489C2.4837 11.835 2.32098 13.9786 3.37968 15.5415L1.85089 17.0703C1.82098 17.1005 1.8042 17.1413 1.8042 17.1838C1.8042 17.2263 1.82098 17.2671 1.85089 17.2973L2.70267 18.1491C2.73482 18.1812 2.77499 18.1953 2.81718 18.1953C2.85937 18.1953 2.89955 18.1792 2.93169 18.1491L4.46049 16.6203C5.13749 17.0803 5.92499 17.3094 6.71249 17.3094C7.74107 17.3094 8.76964 16.9176 9.55513 16.1321L11.6022 14.085C11.6645 14.0228 11.6645 13.9203 11.6022 13.858L10.7384 12.9942L12.0783 11.6542C12.1406 11.592 12.1406 11.4895 12.0783 11.4272L11.3431 10.7ZM8.58683 15.1678C8.34095 15.415 8.04853 15.6109 7.72647 15.7444C7.40441 15.8778 7.0591 15.9461 6.71049 15.9453C6.00133 15.9453 5.33638 15.6701 4.83415 15.1678C4.58701 14.922 4.39106 14.6296 4.25761 14.3075C4.12417 13.9854 4.05588 13.6401 4.05669 13.2915C4.05669 12.5824 4.33191 11.9174 4.83415 11.4152L6.02745 10.2219L9.78013 13.9745L8.58683 15.1678Z" fill="currentColor"/>
</g>
<defs>
<clipPath id="clip0_2720_30">
<rect width="18" height="18" transform="translate(1 1)"/>
</clipPath>
</defs>
</svg>
